G04*
G04 #@! TF.GenerationSoftware,Altium Limited,Altium Designer,21.0.9 (235)*
G04*
G04 Layer_Color=16711935*
%FSLAX25Y25*%
%MOIN*%
G70*
G04*
G04 #@! TF.SameCoordinates,D68A778C-273B-4A11-A0E3-993BC2880866*
G04*
G04*
G04 #@! TF.FilePolarity,Negative*
G04*
G01*
G75*
%ADD25C,0.06312*%
%ADD26R,0.06115X0.06115*%
%ADD27C,0.06115*%
%ADD28R,0.07800X0.07800*%
%ADD29C,0.06706*%
%ADD30R,0.06706X0.06706*%
%ADD31R,0.06800X0.06800*%
%ADD32R,0.06706X0.06706*%
%ADD33R,0.06115X0.06115*%
%ADD34R,0.07800X0.07800*%
%ADD35R,0.08800X0.08800*%
%ADD36C,0.06912*%
%ADD37C,0.07800*%
%ADD38C,0.05800*%
D25*
X283000Y403500D02*
D03*
X298000Y433500D02*
D03*
X283000D02*
D03*
D26*
X349843Y206500D02*
D03*
X449657Y436000D02*
D03*
X207157Y352500D02*
D03*
D27*
X330157Y206500D02*
D03*
X469343Y436000D02*
D03*
X210500Y326343D02*
D03*
X420500Y317843D02*
D03*
X226842Y352500D02*
D03*
X315000Y207343D02*
D03*
X371000Y192157D02*
D03*
X245000Y201500D02*
D03*
D28*
X288157Y222459D02*
D03*
X278157D02*
D03*
X268157D02*
D03*
X258157D02*
D03*
X248157D02*
D03*
X238157D02*
D03*
X228157D02*
D03*
X298157D02*
D03*
X269500Y293500D02*
D03*
X259657Y293346D02*
D03*
X249657D02*
D03*
X239657D02*
D03*
X229657D02*
D03*
X470146Y281098D02*
D03*
X460146D02*
D03*
X450146D02*
D03*
X440146D02*
D03*
X394500Y333000D02*
D03*
X359878Y126000D02*
D03*
X371689D02*
D03*
X383500D02*
D03*
X394500Y403000D02*
D03*
Y433000D02*
D03*
Y423000D02*
D03*
Y393000D02*
D03*
Y383000D02*
D03*
Y353000D02*
D03*
Y323000D02*
D03*
Y313000D02*
D03*
Y303000D02*
D03*
Y413000D02*
D03*
Y373000D02*
D03*
Y293000D02*
D03*
X334500Y403000D02*
D03*
Y343000D02*
D03*
Y433000D02*
D03*
Y423000D02*
D03*
Y393000D02*
D03*
Y383000D02*
D03*
Y363000D02*
D03*
Y353000D02*
D03*
Y323000D02*
D03*
Y313000D02*
D03*
Y303000D02*
D03*
Y413000D02*
D03*
Y373000D02*
D03*
Y333000D02*
D03*
Y293000D02*
D03*
X394500Y343000D02*
D03*
Y363000D02*
D03*
X345500Y241500D02*
D03*
D29*
X479500Y441000D02*
D03*
X372000Y179000D02*
D03*
X400000Y125000D02*
D03*
X479500Y455500D02*
D03*
X400000Y138500D02*
D03*
X372500Y153500D02*
D03*
X321500Y402500D02*
D03*
Y392500D02*
D03*
Y382500D02*
D03*
X277500Y353000D02*
D03*
X287500D02*
D03*
X297500D02*
D03*
X412000Y334500D02*
D03*
Y344500D02*
D03*
Y354500D02*
D03*
D30*
X489500Y441000D02*
D03*
X382000Y179000D02*
D03*
X410000Y125000D02*
D03*
X489500Y455500D02*
D03*
X410000Y138500D02*
D03*
X382500Y153500D02*
D03*
X307500Y353000D02*
D03*
D31*
X537130Y371782D02*
D03*
X450516Y324538D02*
D03*
Y332412D02*
D03*
Y340286D02*
D03*
Y348160D02*
D03*
Y356034D02*
D03*
Y363908D02*
D03*
Y371782D02*
D03*
Y379656D02*
D03*
Y387530D02*
D03*
Y395404D02*
D03*
X537130Y332412D02*
D03*
Y340286D02*
D03*
Y348160D02*
D03*
Y356034D02*
D03*
Y363908D02*
D03*
Y324538D02*
D03*
Y379656D02*
D03*
Y387530D02*
D03*
Y395404D02*
D03*
D32*
X321500Y372500D02*
D03*
X412000Y364500D02*
D03*
D33*
X210500Y306658D02*
D03*
X420500Y298158D02*
D03*
X315000Y187657D02*
D03*
X371000Y211842D02*
D03*
X245000Y181815D02*
D03*
D34*
X275000Y181500D02*
D03*
Y161500D02*
D03*
Y171500D02*
D03*
X356500Y156500D02*
D03*
Y176500D02*
D03*
Y166500D02*
D03*
X237500Y370000D02*
D03*
X247500D02*
D03*
X257500D02*
D03*
X267500D02*
D03*
D35*
X325185Y152500D02*
D03*
X305500D02*
D03*
X431000Y416600D02*
D03*
Y457500D02*
D03*
Y427500D02*
D03*
Y437500D02*
D03*
Y467500D02*
D03*
Y447500D02*
D03*
D36*
X298000Y403500D02*
D03*
D37*
X375421Y241500D02*
D03*
D38*
X352000Y351500D02*
D03*
M02*
