G04*
G04 #@! TF.GenerationSoftware,Altium Limited,Altium Designer,21.0.9 (235)*
G04*
G04 Layer_Physical_Order=2*
G04 Layer_Color=16711680*
%FSLAX25Y25*%
%MOIN*%
G70*
G04*
G04 #@! TF.SameCoordinates,D68A778C-273B-4A11-A0E3-993BC2880866*
G04*
G04*
G04 #@! TF.FilePolarity,Positive*
G04*
G01*
G75*
%ADD10C,0.01000*%
%ADD11C,0.04000*%
%ADD12C,0.05512*%
%ADD13R,0.05315X0.05315*%
%ADD14C,0.05315*%
%ADD15R,0.07000X0.07000*%
%ADD16C,0.05906*%
%ADD17R,0.05906X0.05906*%
%ADD18R,0.06000X0.06000*%
%ADD19R,0.05906X0.05906*%
%ADD20R,0.05315X0.05315*%
%ADD21R,0.07000X0.07000*%
%ADD22R,0.08000X0.08000*%
%ADD23C,0.07000*%
%ADD24C,0.05000*%
G36*
X537914Y287429D02*
X538857D01*
Y287271D01*
X539643D01*
Y287114D01*
X540271D01*
Y286957D01*
X540900D01*
Y286800D01*
X541529D01*
Y286643D01*
X542000D01*
Y286486D01*
X542471D01*
Y286329D01*
X542786D01*
Y286171D01*
X543257D01*
Y286014D01*
X543729D01*
Y285857D01*
X544043D01*
Y285700D01*
X544514D01*
Y285543D01*
X544829D01*
Y285386D01*
X545143D01*
Y285229D01*
X545457D01*
Y285071D01*
X545771D01*
Y284914D01*
X546086D01*
Y284757D01*
X546400D01*
Y284600D01*
X546557D01*
Y284443D01*
X546871D01*
Y284286D01*
X547186D01*
Y284129D01*
X547500D01*
Y283971D01*
X547657D01*
Y283814D01*
X547971D01*
Y283657D01*
X548129D01*
Y283500D01*
X548443D01*
Y283343D01*
X548600D01*
Y283186D01*
X548914D01*
Y283029D01*
X549071D01*
Y282871D01*
X549229D01*
Y282714D01*
X549543D01*
Y282557D01*
X549700D01*
Y282400D01*
X549857D01*
Y282243D01*
X550014D01*
Y282086D01*
X550329D01*
Y281929D01*
X550486D01*
Y281771D01*
X550643D01*
Y281614D01*
X550800D01*
Y281457D01*
X550957D01*
Y281300D01*
X551114D01*
Y281143D01*
X551271D01*
Y280986D01*
X551429D01*
Y280829D01*
X551586D01*
Y280671D01*
X551743D01*
Y280514D01*
X551900D01*
Y280357D01*
X552057D01*
Y280200D01*
X552214D01*
Y280043D01*
X552371D01*
Y279886D01*
X552529D01*
Y279729D01*
X552686D01*
Y279571D01*
Y279414D01*
X552843D01*
Y279257D01*
X553000D01*
Y279100D01*
X553157D01*
Y278943D01*
X553314D01*
Y278786D01*
Y278629D01*
X553471D01*
Y278471D01*
X553629D01*
Y278314D01*
X553786D01*
Y278157D01*
Y278000D01*
X553943D01*
Y277843D01*
X554100D01*
Y277686D01*
X554257D01*
Y277529D01*
Y277371D01*
X554414D01*
Y277214D01*
X554571D01*
Y277057D01*
Y276900D01*
X554729D01*
Y276743D01*
Y276586D01*
X554886D01*
Y276429D01*
X555043D01*
Y276271D01*
Y276114D01*
X555200D01*
Y275957D01*
Y275800D01*
X555357D01*
Y275643D01*
Y275486D01*
X555514D01*
Y275329D01*
Y275171D01*
X555671D01*
Y275014D01*
Y274857D01*
X555829D01*
Y274700D01*
Y274543D01*
X555986D01*
Y274386D01*
Y274229D01*
X556143D01*
Y274071D01*
Y273914D01*
X556300D01*
Y273757D01*
Y273600D01*
Y273443D01*
X556457D01*
Y273286D01*
Y273129D01*
X556614D01*
Y272971D01*
Y272814D01*
Y272657D01*
X556771D01*
Y272500D01*
Y272343D01*
Y272186D01*
X556929D01*
Y272029D01*
Y271871D01*
Y271714D01*
X557086D01*
Y271557D01*
Y271400D01*
Y271243D01*
X557243D01*
Y271086D01*
Y270929D01*
Y270771D01*
Y270614D01*
X557400D01*
Y270457D01*
Y270300D01*
Y270143D01*
Y269986D01*
X557557D01*
Y269829D01*
Y269671D01*
Y269514D01*
Y269357D01*
Y269200D01*
Y269043D01*
Y268886D01*
Y268729D01*
X557400D01*
Y268571D01*
Y268414D01*
X557086D01*
Y268257D01*
X556457D01*
Y268100D01*
X554100D01*
Y268257D01*
X553000D01*
Y268414D01*
X552214D01*
Y268571D01*
X551586D01*
Y268729D01*
X551114D01*
Y268886D01*
X550800D01*
Y269043D01*
X550329D01*
Y269200D01*
X550014D01*
Y269357D01*
X549700D01*
Y269514D01*
X549386D01*
Y269671D01*
X549071D01*
Y269829D01*
X548757D01*
Y269986D01*
X548600D01*
Y270143D01*
X548286D01*
Y270300D01*
X548129D01*
Y270457D01*
X547814D01*
Y270614D01*
X547657D01*
Y270771D01*
X547343D01*
Y270929D01*
X547186D01*
Y271086D01*
X547029D01*
Y271243D01*
X546714D01*
Y271400D01*
X546557D01*
Y271557D01*
X546400D01*
Y271714D01*
X546086D01*
Y271871D01*
X545929D01*
Y272029D01*
X545771D01*
Y272186D01*
X545457D01*
Y272343D01*
X545300D01*
Y272500D01*
X545143D01*
Y272657D01*
X544986D01*
Y272814D01*
X544671D01*
Y272971D01*
X544514D01*
Y273129D01*
X544357D01*
Y273286D01*
X544200D01*
Y273443D01*
X544043D01*
Y273600D01*
X543886D01*
Y273757D01*
X543729D01*
Y273914D01*
X543414D01*
Y274071D01*
X543257D01*
Y274229D01*
X543100D01*
Y274386D01*
X542943D01*
Y274543D01*
Y274700D01*
X542786D01*
Y274857D01*
X542629D01*
Y275014D01*
Y275171D01*
X542471D01*
Y275329D01*
X543100D01*
Y275171D01*
X543414D01*
Y275014D01*
X543729D01*
Y274857D01*
X544043D01*
Y274700D01*
X544200D01*
Y274543D01*
X544514D01*
Y274386D01*
X544671D01*
Y274229D01*
X544986D01*
Y274071D01*
X545300D01*
Y273914D01*
X545457D01*
Y273757D01*
X545771D01*
Y273600D01*
X546086D01*
Y273443D01*
X546400D01*
Y273286D01*
X546557D01*
Y273129D01*
X546871D01*
Y272971D01*
X547186D01*
Y272814D01*
X547500D01*
Y272657D01*
X547814D01*
Y272500D01*
X548129D01*
Y272343D01*
X548443D01*
Y272186D01*
X548757D01*
Y272029D01*
X549229D01*
Y271871D01*
X549543D01*
Y271714D01*
X550014D01*
Y271557D01*
X550800D01*
Y271400D01*
X551900D01*
Y271557D01*
X552371D01*
Y271714D01*
X552686D01*
Y271871D01*
X552843D01*
Y272029D01*
Y272186D01*
X553000D01*
Y272343D01*
Y272500D01*
Y272657D01*
Y272814D01*
Y272971D01*
Y273129D01*
Y273286D01*
Y273443D01*
X552843D01*
Y273600D01*
Y273757D01*
Y273914D01*
Y274071D01*
X552686D01*
Y274229D01*
Y274386D01*
Y274543D01*
X552529D01*
Y274700D01*
Y274857D01*
X552371D01*
Y275014D01*
Y275171D01*
X552214D01*
Y275329D01*
Y275486D01*
X552057D01*
Y275643D01*
Y275800D01*
X551900D01*
Y275957D01*
Y276114D01*
X551743D01*
Y276271D01*
X551586D01*
Y276429D01*
Y276586D01*
X551429D01*
Y276743D01*
Y276900D01*
X551271D01*
Y277057D01*
X551114D01*
Y277214D01*
Y277371D01*
X550957D01*
Y277529D01*
X550800D01*
Y277686D01*
X550643D01*
Y277843D01*
Y278000D01*
X550486D01*
Y278157D01*
X550329D01*
Y278314D01*
X550171D01*
Y278471D01*
X550014D01*
Y278629D01*
Y278786D01*
X549857D01*
Y278943D01*
X549700D01*
Y279100D01*
X549543D01*
Y279257D01*
X549386D01*
Y279414D01*
X549229D01*
Y279571D01*
X549071D01*
Y279729D01*
Y279886D01*
X548914D01*
Y280043D01*
X548757D01*
Y280200D01*
X548600D01*
Y280357D01*
X548443D01*
Y280514D01*
X548286D01*
Y280671D01*
X548129D01*
Y280829D01*
X547971D01*
Y280986D01*
X547814D01*
Y281143D01*
X547657D01*
Y281300D01*
X547500D01*
Y281457D01*
X547343D01*
Y281614D01*
X547186D01*
Y281771D01*
X547029D01*
Y281929D01*
X546714D01*
Y282086D01*
X546557D01*
Y282243D01*
X546400D01*
Y282400D01*
X546243D01*
Y282557D01*
X545929D01*
Y282714D01*
X545771D01*
Y282871D01*
X545457D01*
Y283029D01*
X544986D01*
Y283186D01*
X543414D01*
Y283029D01*
X543100D01*
Y282871D01*
X542629D01*
Y282714D01*
X542471D01*
Y282557D01*
X542314D01*
Y282400D01*
X542000D01*
Y282243D01*
X541843D01*
Y282086D01*
X541686D01*
Y281929D01*
X541529D01*
Y281771D01*
X541371D01*
Y281614D01*
Y281457D01*
X541214D01*
Y281300D01*
X541057D01*
Y281143D01*
Y280986D01*
X540900D01*
Y280829D01*
Y280671D01*
X540743D01*
Y280514D01*
Y280357D01*
Y280200D01*
Y280043D01*
X540586D01*
Y279886D01*
Y279729D01*
Y279571D01*
Y279414D01*
Y279257D01*
X540743D01*
Y279100D01*
Y278943D01*
Y278786D01*
Y278629D01*
X540900D01*
Y278471D01*
Y278314D01*
X541057D01*
Y278157D01*
Y278000D01*
X541214D01*
Y277843D01*
Y277686D01*
X541371D01*
Y277529D01*
Y277371D01*
X541529D01*
Y277214D01*
Y277057D01*
X541686D01*
Y276900D01*
Y276743D01*
X541843D01*
Y276586D01*
Y276429D01*
Y276271D01*
Y276114D01*
X541686D01*
Y276271D01*
X541371D01*
Y276429D01*
Y276586D01*
X541214D01*
Y276743D01*
X541057D01*
Y276900D01*
X540900D01*
Y277057D01*
X540743D01*
Y277214D01*
X540586D01*
Y277371D01*
Y277529D01*
X540429D01*
Y277686D01*
X540271D01*
Y277843D01*
Y278000D01*
X540114D01*
Y278157D01*
X539957D01*
Y278314D01*
Y278471D01*
X539800D01*
Y278629D01*
X539643D01*
Y278786D01*
X539486D01*
Y278943D01*
Y279100D01*
X539329D01*
Y279257D01*
X539171D01*
Y279414D01*
X538857D01*
Y279571D01*
X538700D01*
Y279729D01*
X538386D01*
Y279886D01*
X537914D01*
Y280043D01*
X537443D01*
Y280200D01*
X536500D01*
Y280357D01*
X534771D01*
Y280200D01*
X533829D01*
Y280043D01*
X533357D01*
Y279886D01*
X532886D01*
Y279729D01*
X532571D01*
Y279571D01*
X532257D01*
Y279414D01*
X532100D01*
Y279257D01*
X531943D01*
Y279100D01*
X531786D01*
Y278943D01*
X531629D01*
Y278786D01*
Y278629D01*
X531471D01*
Y278471D01*
X531314D01*
Y278314D01*
Y278157D01*
X531157D01*
Y278000D01*
X531000D01*
Y277843D01*
Y277686D01*
X530843D01*
Y277529D01*
X530686D01*
Y277371D01*
X530529D01*
Y277214D01*
Y277057D01*
X530371D01*
Y276900D01*
X530214D01*
Y276743D01*
X530057D01*
Y276586D01*
X529900D01*
Y276429D01*
X529743D01*
Y276271D01*
X529586D01*
Y276114D01*
X529429D01*
Y276271D01*
Y276429D01*
Y276586D01*
Y276743D01*
X529586D01*
Y276900D01*
Y277057D01*
X529743D01*
Y277214D01*
Y277371D01*
X529900D01*
Y277529D01*
Y277686D01*
X530057D01*
Y277843D01*
Y278000D01*
X530214D01*
Y278157D01*
Y278314D01*
X530371D01*
Y278471D01*
Y278629D01*
Y278786D01*
X530529D01*
Y278943D01*
Y279100D01*
Y279257D01*
Y279414D01*
Y279571D01*
X530686D01*
Y279729D01*
X530529D01*
Y279886D01*
Y280043D01*
Y280200D01*
Y280357D01*
Y280514D01*
Y280671D01*
X530371D01*
Y280829D01*
Y280986D01*
X530214D01*
Y281143D01*
Y281300D01*
X530057D01*
Y281457D01*
X529900D01*
Y281614D01*
X529743D01*
Y281771D01*
Y281929D01*
X529586D01*
Y282086D01*
X529429D01*
Y282243D01*
X529114D01*
Y282400D01*
X528957D01*
Y282557D01*
X528800D01*
Y282714D01*
X528486D01*
Y282871D01*
X528171D01*
Y283029D01*
X527857D01*
Y283186D01*
X526129D01*
Y283029D01*
X525814D01*
Y282871D01*
X525500D01*
Y282714D01*
X525343D01*
Y282557D01*
X525029D01*
Y282400D01*
X524871D01*
Y282243D01*
X524714D01*
Y282086D01*
X524400D01*
Y281929D01*
X524243D01*
Y281771D01*
X524086D01*
Y281614D01*
X523929D01*
Y281457D01*
X523771D01*
Y281300D01*
X523614D01*
Y281143D01*
X523457D01*
Y280986D01*
X523300D01*
Y280829D01*
X523143D01*
Y280671D01*
X522986D01*
Y280514D01*
X522829D01*
Y280357D01*
X522671D01*
Y280200D01*
X522514D01*
Y280043D01*
X522357D01*
Y279886D01*
X522200D01*
Y279729D01*
X522043D01*
Y279571D01*
X521886D01*
Y279414D01*
Y279257D01*
X521729D01*
Y279100D01*
X521571D01*
Y278943D01*
X521414D01*
Y278786D01*
X521257D01*
Y278629D01*
Y278471D01*
X521100D01*
Y278314D01*
X520943D01*
Y278157D01*
X520786D01*
Y278000D01*
X520629D01*
Y277843D01*
X520471D01*
Y277686D01*
Y277529D01*
X520314D01*
Y277371D01*
X520157D01*
Y277214D01*
Y277057D01*
X520000D01*
Y276900D01*
X519843D01*
Y276743D01*
Y276586D01*
X519686D01*
Y276429D01*
X519529D01*
Y276271D01*
Y276114D01*
X519371D01*
Y275957D01*
X519214D01*
Y275800D01*
Y275643D01*
X519057D01*
Y275486D01*
Y275329D01*
X518900D01*
Y275171D01*
Y275014D01*
X518743D01*
Y274857D01*
Y274700D01*
Y274543D01*
X518586D01*
Y274386D01*
Y274229D01*
Y274071D01*
X518429D01*
Y273914D01*
Y273757D01*
Y273600D01*
X518271D01*
Y273443D01*
Y273286D01*
Y273129D01*
Y272971D01*
Y272814D01*
Y272657D01*
Y272500D01*
Y272343D01*
Y272186D01*
Y272029D01*
X518429D01*
Y271871D01*
X518586D01*
Y271714D01*
X518743D01*
Y271557D01*
X519214D01*
Y271400D01*
X520471D01*
Y271557D01*
X521100D01*
Y271714D01*
X521729D01*
Y271871D01*
X522043D01*
Y272029D01*
X522514D01*
Y272186D01*
X522829D01*
Y272343D01*
X523143D01*
Y272500D01*
X523457D01*
Y272657D01*
X523771D01*
Y272814D01*
X524086D01*
Y272971D01*
X524400D01*
Y273129D01*
X524557D01*
Y273286D01*
X524871D01*
Y273443D01*
X525186D01*
Y273600D01*
X525500D01*
Y273757D01*
X525657D01*
Y273914D01*
X525971D01*
Y274071D01*
X526286D01*
Y274229D01*
X526600D01*
Y274386D01*
X526757D01*
Y274543D01*
X527071D01*
Y274700D01*
X527229D01*
Y274857D01*
X527543D01*
Y275014D01*
X527857D01*
Y275171D01*
X528014D01*
Y275329D01*
X528643D01*
Y275171D01*
Y275014D01*
Y274857D01*
X528486D01*
Y274700D01*
X528329D01*
Y274543D01*
X528171D01*
Y274386D01*
X528014D01*
Y274229D01*
X527857D01*
Y274071D01*
X527700D01*
Y273914D01*
X527543D01*
Y273757D01*
X527386D01*
Y273600D01*
X527229D01*
Y273443D01*
X527071D01*
Y273286D01*
X526914D01*
Y273129D01*
X526757D01*
Y272971D01*
X526600D01*
Y272814D01*
X526286D01*
Y272657D01*
X526129D01*
Y272500D01*
X525971D01*
Y272343D01*
X525657D01*
Y272186D01*
X525500D01*
Y272029D01*
X525343D01*
Y271871D01*
X525186D01*
Y271714D01*
X524871D01*
Y271557D01*
X524714D01*
Y271400D01*
X524400D01*
Y271243D01*
X524243D01*
Y271086D01*
X524086D01*
Y270929D01*
X523771D01*
Y270771D01*
X523614D01*
Y270614D01*
X523300D01*
Y270457D01*
X523143D01*
Y270300D01*
X522986D01*
Y270143D01*
X522671D01*
Y269986D01*
X522357D01*
Y269829D01*
X522200D01*
Y269671D01*
X521886D01*
Y269514D01*
X521571D01*
Y269357D01*
X521257D01*
Y269200D01*
X520943D01*
Y269043D01*
X520471D01*
Y268886D01*
X520157D01*
Y268729D01*
X519529D01*
Y268571D01*
X519057D01*
Y268414D01*
X518271D01*
Y268257D01*
X517014D01*
Y268100D01*
X514657D01*
Y268257D01*
X514186D01*
Y268414D01*
X513871D01*
Y268571D01*
Y268729D01*
Y268886D01*
Y269043D01*
Y269200D01*
Y269357D01*
Y269514D01*
Y269671D01*
Y269829D01*
Y269986D01*
Y270143D01*
Y270300D01*
Y270457D01*
Y270614D01*
Y270771D01*
X514029D01*
Y270929D01*
Y271086D01*
Y271243D01*
X514186D01*
Y271400D01*
Y271557D01*
Y271714D01*
Y271871D01*
X514343D01*
Y272029D01*
Y272186D01*
X514500D01*
Y272343D01*
Y272500D01*
Y272657D01*
X514657D01*
Y272814D01*
Y272971D01*
Y273129D01*
X514814D01*
Y273286D01*
Y273443D01*
Y273600D01*
X514971D01*
Y273757D01*
Y273914D01*
X515129D01*
Y274071D01*
Y274229D01*
X515286D01*
Y274386D01*
Y274543D01*
Y274700D01*
X515443D01*
Y274857D01*
Y275014D01*
X515600D01*
Y275171D01*
Y275329D01*
X515757D01*
Y275486D01*
Y275643D01*
X515914D01*
Y275800D01*
X516071D01*
Y275957D01*
Y276114D01*
X516229D01*
Y276271D01*
Y276429D01*
X516386D01*
Y276586D01*
Y276743D01*
X516543D01*
Y276900D01*
X516700D01*
Y277057D01*
Y277214D01*
X516857D01*
Y277371D01*
X517014D01*
Y277529D01*
Y277686D01*
X517171D01*
Y277843D01*
X517329D01*
Y278000D01*
Y278157D01*
X517486D01*
Y278314D01*
X517643D01*
Y278471D01*
X517800D01*
Y278629D01*
Y278786D01*
X517957D01*
Y278943D01*
X518114D01*
Y279100D01*
X518271D01*
Y279257D01*
Y279414D01*
X518429D01*
Y279571D01*
X518586D01*
Y279729D01*
X518743D01*
Y279886D01*
X518900D01*
Y280043D01*
X519057D01*
Y280200D01*
X519214D01*
Y280357D01*
X519371D01*
Y280514D01*
X519529D01*
Y280671D01*
X519686D01*
Y280829D01*
X519843D01*
Y280986D01*
X520000D01*
Y281143D01*
X520157D01*
Y281300D01*
X520314D01*
Y281457D01*
X520471D01*
Y281614D01*
X520629D01*
Y281771D01*
X520786D01*
Y281929D01*
X520943D01*
Y282086D01*
X521257D01*
Y282243D01*
X521414D01*
Y282400D01*
X521571D01*
Y282557D01*
X521729D01*
Y282714D01*
X521886D01*
Y282871D01*
X522200D01*
Y283029D01*
X522357D01*
Y283186D01*
X522671D01*
Y283343D01*
X522829D01*
Y283500D01*
X523143D01*
Y283657D01*
X523300D01*
Y283814D01*
X523614D01*
Y283971D01*
X523771D01*
Y284129D01*
X524086D01*
Y284286D01*
X524400D01*
Y284443D01*
X524557D01*
Y284600D01*
X524871D01*
Y284757D01*
X525186D01*
Y284914D01*
X525500D01*
Y285071D01*
X525814D01*
Y285229D01*
X526129D01*
Y285386D01*
X526443D01*
Y285543D01*
X526757D01*
Y285700D01*
X527229D01*
Y285857D01*
X527543D01*
Y286014D01*
X528014D01*
Y286171D01*
X528329D01*
Y286329D01*
X528800D01*
Y286486D01*
X529271D01*
Y286643D01*
X529900D01*
Y286800D01*
X530371D01*
Y286957D01*
X531000D01*
Y287114D01*
X531629D01*
Y287271D01*
X532414D01*
Y287429D01*
X533357D01*
Y287586D01*
X537914D01*
Y287429D01*
D02*
G37*
G36*
X536500Y277843D02*
X537914D01*
Y277686D01*
X538386D01*
Y277529D01*
X539014D01*
Y277371D01*
X539329D01*
Y277214D01*
X539643D01*
Y277057D01*
X539800D01*
Y276900D01*
X540114D01*
Y276743D01*
X540271D01*
Y276586D01*
X540429D01*
Y276429D01*
X540586D01*
Y276271D01*
X540743D01*
Y276114D01*
X540900D01*
Y275957D01*
Y275800D01*
X541057D01*
Y275643D01*
Y275486D01*
X541214D01*
Y275329D01*
Y275171D01*
X541371D01*
Y275014D01*
Y274857D01*
X541529D01*
Y274700D01*
Y274543D01*
Y274386D01*
Y274229D01*
Y274071D01*
X541686D01*
Y273914D01*
Y273757D01*
Y273600D01*
Y273443D01*
Y273286D01*
Y273129D01*
Y272971D01*
Y272814D01*
Y272657D01*
Y272500D01*
Y272343D01*
Y272186D01*
Y272029D01*
Y271871D01*
Y271714D01*
Y271557D01*
Y271400D01*
Y271243D01*
X541529D01*
Y271086D01*
Y270929D01*
Y270771D01*
Y270614D01*
X541371D01*
Y270457D01*
Y270300D01*
X541214D01*
Y270143D01*
Y269986D01*
X541057D01*
Y269829D01*
X540900D01*
Y269671D01*
X540743D01*
Y269514D01*
X540586D01*
Y269357D01*
X540271D01*
Y269200D01*
X539800D01*
Y269043D01*
X539171D01*
Y268886D01*
X538071D01*
Y268729D01*
X533671D01*
Y268886D01*
X532257D01*
Y269043D01*
X531786D01*
Y269200D01*
X531314D01*
Y269357D01*
X531000D01*
Y269514D01*
X530686D01*
Y269671D01*
X530529D01*
Y269829D01*
X530371D01*
Y269986D01*
X530214D01*
Y270143D01*
X530057D01*
Y270300D01*
X529900D01*
Y270457D01*
Y270614D01*
X529743D01*
Y270771D01*
Y270929D01*
Y271086D01*
X529586D01*
Y271243D01*
Y271400D01*
Y271557D01*
Y271714D01*
Y271871D01*
Y272029D01*
Y272186D01*
Y272343D01*
Y272500D01*
Y272657D01*
Y272814D01*
Y272971D01*
Y273129D01*
Y273286D01*
Y273443D01*
Y273600D01*
Y273757D01*
Y273914D01*
Y274071D01*
Y274229D01*
X529743D01*
Y274386D01*
Y274543D01*
Y274700D01*
X529900D01*
Y274857D01*
Y275014D01*
Y275171D01*
X530057D01*
Y275329D01*
Y275486D01*
X530214D01*
Y275643D01*
Y275800D01*
X530371D01*
Y275957D01*
X530529D01*
Y276114D01*
X530686D01*
Y276271D01*
X530843D01*
Y276429D01*
X531000D01*
Y276586D01*
X531157D01*
Y276743D01*
X531314D01*
Y276900D01*
X531471D01*
Y277057D01*
X531786D01*
Y277214D01*
X532100D01*
Y277371D01*
X532571D01*
Y277529D01*
X533043D01*
Y277686D01*
X533671D01*
Y277843D01*
X534929D01*
Y278000D01*
X536500D01*
Y277843D01*
D02*
G37*
G36*
Y268100D02*
X537129D01*
Y267943D01*
X537286D01*
Y267786D01*
X537443D01*
Y267629D01*
X537600D01*
Y267471D01*
Y267314D01*
X537757D01*
Y267157D01*
Y267000D01*
Y266843D01*
X537600D01*
Y266686D01*
Y266529D01*
Y266371D01*
X537443D01*
Y266214D01*
X537286D01*
Y266057D01*
X537443D01*
Y265900D01*
Y265743D01*
X537600D01*
Y265586D01*
X537757D01*
Y265429D01*
Y265271D01*
X537914D01*
Y265114D01*
X538071D01*
Y264957D01*
Y264800D01*
X534929D01*
Y264957D01*
Y265114D01*
Y265271D01*
Y265429D01*
Y265586D01*
Y265743D01*
Y265900D01*
Y266057D01*
Y266214D01*
Y266371D01*
Y266529D01*
Y266686D01*
Y266843D01*
Y267000D01*
Y267157D01*
Y267314D01*
Y267471D01*
Y267629D01*
Y267786D01*
Y267943D01*
Y268100D01*
X535086D01*
Y268257D01*
X535714D01*
Y268100D01*
X535871D01*
Y268257D01*
X536500D01*
Y268100D01*
D02*
G37*
G36*
X544829Y271557D02*
X545143D01*
Y271400D01*
X545300D01*
Y271243D01*
X545614D01*
Y271086D01*
X545929D01*
Y270929D01*
X546086D01*
Y270771D01*
X546400D01*
Y270614D01*
X546557D01*
Y270457D01*
X546871D01*
Y270300D01*
X547029D01*
Y270143D01*
X547343D01*
Y269986D01*
X547500D01*
Y269829D01*
X547814D01*
Y269671D01*
X547971D01*
Y269514D01*
X548286D01*
Y269357D01*
X548443D01*
Y269200D01*
X548600D01*
Y269043D01*
X548914D01*
Y268886D01*
X549071D01*
Y268729D01*
X549229D01*
Y268571D01*
X549386D01*
Y268414D01*
Y268257D01*
X549543D01*
Y268100D01*
X549700D01*
Y267943D01*
Y267786D01*
X549857D01*
Y267629D01*
Y267471D01*
X550014D01*
Y267314D01*
Y267157D01*
Y267000D01*
Y266843D01*
X550171D01*
Y266686D01*
Y266529D01*
Y266371D01*
X550329D01*
Y266214D01*
Y266057D01*
Y265900D01*
Y265743D01*
Y265586D01*
Y265429D01*
Y265271D01*
Y265114D01*
Y264957D01*
Y264800D01*
X543414D01*
Y264957D01*
X543257D01*
Y265114D01*
Y265271D01*
Y265429D01*
Y265586D01*
Y265743D01*
Y265900D01*
X543414D01*
Y266057D01*
Y266214D01*
Y266371D01*
Y266529D01*
Y266686D01*
Y266843D01*
Y267000D01*
X543571D01*
Y267157D01*
Y267314D01*
Y267471D01*
X543414D01*
Y267629D01*
Y267786D01*
Y267943D01*
Y268100D01*
Y268257D01*
Y268414D01*
Y268571D01*
Y268729D01*
Y268886D01*
Y269043D01*
Y269200D01*
Y269357D01*
Y269514D01*
Y269671D01*
Y269829D01*
Y269986D01*
Y270143D01*
Y270300D01*
Y270457D01*
Y270614D01*
X543571D01*
Y270771D01*
Y270929D01*
Y271086D01*
X543729D01*
Y271243D01*
Y271400D01*
X543886D01*
Y271557D01*
X544043D01*
Y271714D01*
X544829D01*
Y271557D01*
D02*
G37*
G36*
X540743Y268100D02*
X540900D01*
Y267943D01*
Y267786D01*
Y267629D01*
Y267471D01*
Y267314D01*
Y267157D01*
Y267000D01*
X540743D01*
Y266843D01*
X540271D01*
Y266686D01*
Y266529D01*
Y266371D01*
Y266214D01*
Y266057D01*
Y265900D01*
Y265743D01*
Y265586D01*
Y265429D01*
Y265271D01*
Y265114D01*
Y264957D01*
Y264800D01*
X538857D01*
Y264957D01*
Y265114D01*
Y265271D01*
Y265429D01*
Y265586D01*
Y265743D01*
Y265900D01*
Y266057D01*
Y266214D01*
Y266371D01*
Y266529D01*
Y266686D01*
Y266843D01*
X538543D01*
Y267000D01*
X538229D01*
Y267157D01*
Y267314D01*
Y267471D01*
Y267629D01*
Y267786D01*
Y267943D01*
Y268100D01*
X538386D01*
Y268257D01*
X540743D01*
Y268100D01*
D02*
G37*
G36*
X527229Y271557D02*
X527386D01*
Y271400D01*
X527543D01*
Y271243D01*
Y271086D01*
X527700D01*
Y270929D01*
Y270771D01*
Y270614D01*
Y270457D01*
X527857D01*
Y270300D01*
Y270143D01*
Y269986D01*
Y269829D01*
Y269671D01*
Y269514D01*
Y269357D01*
Y269200D01*
Y269043D01*
Y268886D01*
Y268729D01*
Y268571D01*
Y268414D01*
Y268257D01*
Y268100D01*
Y267943D01*
Y267786D01*
X527700D01*
Y267629D01*
Y267471D01*
Y267314D01*
Y267157D01*
Y267000D01*
Y266843D01*
Y266686D01*
X527857D01*
Y266529D01*
Y266371D01*
Y266214D01*
Y266057D01*
Y265900D01*
Y265743D01*
Y265586D01*
X528014D01*
Y265429D01*
Y265271D01*
Y265114D01*
Y264957D01*
X527857D01*
Y264800D01*
X520943D01*
Y264957D01*
Y265114D01*
Y265271D01*
Y265429D01*
Y265586D01*
Y265743D01*
Y265900D01*
Y266057D01*
Y266214D01*
Y266371D01*
Y266529D01*
X521100D01*
Y266686D01*
Y266843D01*
Y267000D01*
X521257D01*
Y267157D01*
Y267314D01*
Y267471D01*
X521414D01*
Y267629D01*
Y267786D01*
X521571D01*
Y267943D01*
Y268100D01*
X521729D01*
Y268257D01*
Y268414D01*
X521886D01*
Y268571D01*
X522043D01*
Y268729D01*
X522200D01*
Y268886D01*
X522357D01*
Y269043D01*
X522514D01*
Y269200D01*
X522829D01*
Y269357D01*
X522986D01*
Y269514D01*
X523300D01*
Y269671D01*
X523457D01*
Y269829D01*
X523771D01*
Y269986D01*
X523929D01*
Y270143D01*
X524243D01*
Y270300D01*
X524400D01*
Y270457D01*
X524557D01*
Y270614D01*
X524871D01*
Y270771D01*
X525186D01*
Y270929D01*
X525343D01*
Y271086D01*
X525657D01*
Y271243D01*
X525971D01*
Y271400D01*
X526129D01*
Y271557D01*
X526443D01*
Y271714D01*
X527229D01*
Y271557D01*
D02*
G37*
G36*
X532886Y268100D02*
X533357D01*
Y267943D01*
X533514D01*
Y267786D01*
X533671D01*
Y267629D01*
X533829D01*
Y267471D01*
X533986D01*
Y267314D01*
X534143D01*
Y267157D01*
Y267000D01*
Y266843D01*
X534300D01*
Y266686D01*
Y266529D01*
Y266371D01*
Y266214D01*
Y266057D01*
X534143D01*
Y265900D01*
Y265743D01*
X533986D01*
Y265586D01*
Y265429D01*
X533829D01*
Y265271D01*
X533671D01*
Y265114D01*
X533514D01*
Y264957D01*
X533200D01*
Y264800D01*
X532571D01*
Y264643D01*
X532100D01*
Y264800D01*
X531471D01*
Y264957D01*
X531157D01*
Y265114D01*
X531000D01*
Y265271D01*
X530843D01*
Y265429D01*
X530686D01*
Y265586D01*
X530529D01*
Y265743D01*
Y265900D01*
X530371D01*
Y266057D01*
Y266214D01*
Y266371D01*
Y266529D01*
Y266686D01*
Y266843D01*
Y267000D01*
X530529D01*
Y267157D01*
Y267314D01*
X530686D01*
Y267471D01*
Y267629D01*
X530843D01*
Y267786D01*
X531157D01*
Y267943D01*
X531314D01*
Y268100D01*
X531786D01*
Y268257D01*
X532886D01*
Y268100D01*
D02*
G37*
G36*
X529812Y256437D02*
X531007D01*
Y256329D01*
X531766D01*
Y256220D01*
X532201D01*
Y256112D01*
X532743D01*
Y256003D01*
X533178D01*
Y255895D01*
X533503D01*
Y255786D01*
X533829D01*
Y255678D01*
X534046D01*
Y255569D01*
X534372D01*
Y255461D01*
X534697D01*
Y255352D01*
X534914D01*
Y255243D01*
X535023D01*
Y255135D01*
X535349D01*
Y255026D01*
X535566D01*
Y254918D01*
X535674D01*
Y254809D01*
X535891D01*
Y254701D01*
X536217D01*
Y254592D01*
X536326D01*
Y254484D01*
X536434D01*
Y254375D01*
X536651D01*
Y254266D01*
X536760D01*
Y254158D01*
X536868D01*
Y254049D01*
X537085D01*
Y253941D01*
X537194D01*
Y253832D01*
X537303D01*
Y253724D01*
X537520D01*
Y253615D01*
X537628D01*
Y253507D01*
X537737D01*
Y253398D01*
X537845D01*
Y253290D01*
X537954D01*
Y253181D01*
X538062D01*
Y253072D01*
X538171D01*
Y252964D01*
X538280D01*
Y252855D01*
X538388D01*
Y252747D01*
X538497D01*
Y252638D01*
X538605D01*
Y252530D01*
X538714D01*
Y252421D01*
X538822D01*
Y252312D01*
X538931D01*
Y252204D01*
X539040D01*
Y252095D01*
X539148D01*
Y251987D01*
X539365D01*
Y251878D01*
Y251770D01*
X539474D01*
Y251661D01*
X539582D01*
Y251553D01*
X539691D01*
Y251444D01*
Y251336D01*
Y251227D01*
Y251118D01*
X539582D01*
Y251010D01*
Y250901D01*
X539474D01*
Y250793D01*
X539365D01*
Y250684D01*
Y250576D01*
X539257D01*
Y250467D01*
X539148D01*
Y250359D01*
X539040D01*
Y250250D01*
Y250141D01*
X538931D01*
Y250033D01*
X538822D01*
Y249924D01*
X538714D01*
Y249816D01*
X538605D01*
Y249707D01*
X538497D01*
Y249599D01*
Y249490D01*
X538388D01*
Y249382D01*
X538280D01*
Y249273D01*
X538171D01*
Y249165D01*
X538062D01*
Y249056D01*
X537954D01*
Y248947D01*
X537845D01*
Y248839D01*
Y248730D01*
X537737D01*
Y248622D01*
X537628D01*
Y248513D01*
X537520D01*
Y248405D01*
X537411D01*
Y248296D01*
X537303D01*
Y248187D01*
X537194D01*
Y248079D01*
Y247970D01*
Y247862D01*
Y247753D01*
Y247645D01*
Y247536D01*
X537085D01*
Y247428D01*
Y247319D01*
Y247211D01*
Y247102D01*
Y246993D01*
Y246885D01*
Y246776D01*
Y246668D01*
X536977D01*
Y246559D01*
Y246451D01*
Y246342D01*
Y246234D01*
Y246125D01*
Y246016D01*
Y245908D01*
Y245799D01*
X536868D01*
Y245691D01*
Y245582D01*
Y245474D01*
Y245365D01*
Y245257D01*
Y245148D01*
Y245040D01*
Y244931D01*
X536760D01*
Y244822D01*
Y244714D01*
Y244605D01*
Y244497D01*
Y244388D01*
Y244280D01*
Y244171D01*
Y244062D01*
X536651D01*
Y243954D01*
Y243845D01*
Y243737D01*
Y243628D01*
Y243520D01*
Y243411D01*
Y243303D01*
X536543D01*
Y243194D01*
Y243086D01*
Y242977D01*
Y242868D01*
Y242760D01*
Y242651D01*
Y242543D01*
Y242434D01*
X536434D01*
Y242326D01*
Y242217D01*
Y242109D01*
Y242000D01*
Y241891D01*
Y241783D01*
Y241674D01*
Y241566D01*
X536326D01*
Y241457D01*
Y241349D01*
Y241240D01*
Y241132D01*
Y241023D01*
Y240915D01*
Y240806D01*
Y240697D01*
X536217D01*
Y240589D01*
Y240480D01*
Y240372D01*
Y240263D01*
Y240155D01*
Y240046D01*
Y239937D01*
X536109D01*
Y239829D01*
Y239720D01*
Y239612D01*
Y239503D01*
Y239395D01*
Y239286D01*
Y239178D01*
Y239069D01*
X536000D01*
Y238961D01*
Y238852D01*
Y238743D01*
Y238635D01*
X536109D01*
Y238526D01*
Y238418D01*
X536217D01*
Y238309D01*
Y238201D01*
Y238092D01*
Y237984D01*
Y237875D01*
Y237766D01*
Y237658D01*
X536109D01*
Y237549D01*
Y237441D01*
X535891D01*
Y237332D01*
X535132D01*
Y237441D01*
X534914D01*
Y237549D01*
X534697D01*
Y237441D01*
X533612D01*
Y237332D01*
X532635D01*
Y237224D01*
X531549D01*
Y237115D01*
X530464D01*
Y237007D01*
X529487D01*
Y236898D01*
X528401D01*
Y236789D01*
X527207D01*
Y236681D01*
X526230D01*
Y236572D01*
X525579D01*
Y236464D01*
X525470D01*
Y236355D01*
X525362D01*
Y236247D01*
X525253D01*
Y236138D01*
X525145D01*
Y236030D01*
X525036D01*
Y235921D01*
X524928D01*
Y235812D01*
X524711D01*
Y235704D01*
X524602D01*
Y235595D01*
X524493D01*
Y235487D01*
X524385D01*
Y235378D01*
X524276D01*
Y235270D01*
X524059D01*
Y235161D01*
X523951D01*
Y235053D01*
X523842D01*
Y234944D01*
X523734D01*
Y234836D01*
X523625D01*
Y234727D01*
X523408D01*
Y234618D01*
X523299D01*
Y234510D01*
X523191D01*
Y234401D01*
X522974D01*
Y234293D01*
X522757D01*
Y234184D01*
Y234076D01*
X522540D01*
Y233967D01*
X522431D01*
Y233859D01*
X521888D01*
Y233967D01*
X521780D01*
Y234076D01*
X521671D01*
Y234184D01*
X521562D01*
Y234293D01*
X521454D01*
Y234401D01*
X521345D01*
Y234510D01*
X521237D01*
Y234618D01*
X521020D01*
Y234727D01*
X520911D01*
Y234836D01*
X520803D01*
Y234944D01*
X520585D01*
Y235053D01*
Y235161D01*
X520477D01*
Y235270D01*
X520368D01*
Y235378D01*
X520260D01*
Y235487D01*
X520151D01*
Y235595D01*
X520043D01*
Y235704D01*
X519934D01*
Y235812D01*
Y235921D01*
X519826D01*
Y236030D01*
X519717D01*
Y236138D01*
X519609D01*
Y236247D01*
X519500D01*
Y236355D01*
Y236464D01*
X519391D01*
Y236572D01*
X519283D01*
Y236681D01*
Y236789D01*
X519174D01*
Y236898D01*
X519066D01*
Y237007D01*
X518957D01*
Y237115D01*
Y237224D01*
X518849D01*
Y237332D01*
Y237441D01*
X518740D01*
Y237549D01*
Y237658D01*
X518632D01*
Y237766D01*
X518523D01*
Y237875D01*
Y237984D01*
X518414D01*
Y238092D01*
Y238201D01*
Y238309D01*
X518306D01*
Y238418D01*
X518197D01*
Y238526D01*
Y238635D01*
X518089D01*
Y238743D01*
Y238852D01*
X517980D01*
Y238961D01*
Y239069D01*
Y239178D01*
X517872D01*
Y239286D01*
Y239395D01*
Y239503D01*
X517763D01*
Y239612D01*
Y239720D01*
Y239829D01*
X517655D01*
Y239937D01*
Y240046D01*
Y240155D01*
X517546D01*
Y240263D01*
Y240372D01*
Y240480D01*
X517438D01*
Y240589D01*
Y240697D01*
Y240806D01*
Y240915D01*
X517329D01*
Y241023D01*
Y241132D01*
Y241240D01*
Y241349D01*
X517220D01*
Y241457D01*
Y241566D01*
Y241674D01*
Y241783D01*
Y241891D01*
Y242000D01*
X517112D01*
Y242109D01*
Y242217D01*
Y242326D01*
Y242434D01*
Y242543D01*
Y242651D01*
X517003D01*
Y242760D01*
Y242868D01*
Y242977D01*
Y243086D01*
Y243194D01*
Y243303D01*
Y243411D01*
Y243520D01*
Y243628D01*
Y243737D01*
Y243845D01*
Y243954D01*
Y244062D01*
Y244171D01*
Y244280D01*
Y244388D01*
Y244497D01*
Y244605D01*
Y244714D01*
Y244822D01*
Y244931D01*
Y245040D01*
Y245148D01*
X517112D01*
Y245257D01*
Y245365D01*
Y245474D01*
Y245582D01*
Y245691D01*
Y245799D01*
Y245908D01*
Y246016D01*
X517220D01*
Y246125D01*
Y246234D01*
Y246342D01*
Y246451D01*
X517329D01*
Y246559D01*
Y246668D01*
Y246776D01*
Y246885D01*
Y246993D01*
Y247102D01*
X517438D01*
Y247211D01*
Y247319D01*
Y247428D01*
X517546D01*
Y247536D01*
Y247645D01*
Y247753D01*
X517655D01*
Y247862D01*
Y247970D01*
Y248079D01*
X517763D01*
Y248187D01*
Y248296D01*
Y248405D01*
X517872D01*
Y248513D01*
Y248622D01*
Y248730D01*
X517980D01*
Y248839D01*
Y248947D01*
X518089D01*
Y249056D01*
Y249165D01*
X518197D01*
Y249273D01*
Y249382D01*
Y249490D01*
X518306D01*
Y249599D01*
X518414D01*
Y249707D01*
Y249816D01*
X518523D01*
Y249924D01*
Y250033D01*
X518632D01*
Y250141D01*
X518740D01*
Y250250D01*
Y250359D01*
Y250467D01*
X518849D01*
Y250576D01*
X518957D01*
Y250684D01*
Y250793D01*
X519066D01*
Y250901D01*
X519174D01*
Y251010D01*
Y251118D01*
X519283D01*
Y251227D01*
X519391D01*
Y251336D01*
X519500D01*
Y251444D01*
X519609D01*
Y251553D01*
Y251661D01*
X519717D01*
Y251770D01*
Y251878D01*
X519826D01*
Y251987D01*
X519934D01*
Y252095D01*
X520043D01*
Y252204D01*
X520151D01*
Y252312D01*
X520260D01*
Y252421D01*
X520368D01*
Y252530D01*
X520477D01*
Y252638D01*
X520585D01*
Y252747D01*
X520694D01*
Y252855D01*
X520803D01*
Y252964D01*
X520911D01*
Y253072D01*
X521020D01*
Y253181D01*
X521128D01*
Y253290D01*
X521237D01*
Y253398D01*
X521345D01*
Y253507D01*
X521454D01*
Y253615D01*
X521562D01*
Y253724D01*
X521671D01*
Y253832D01*
X521888D01*
Y253941D01*
X522105D01*
Y254049D01*
X522214D01*
Y254158D01*
X522322D01*
Y254266D01*
X522540D01*
Y254375D01*
X522648D01*
Y254484D01*
X522757D01*
Y254592D01*
X522974D01*
Y254701D01*
X523191D01*
Y254809D01*
X523299D01*
Y254918D01*
X523625D01*
Y255026D01*
X523842D01*
Y255135D01*
X523951D01*
Y255243D01*
X524168D01*
Y255352D01*
X524493D01*
Y255461D01*
X524711D01*
Y255569D01*
X525036D01*
Y255678D01*
X525362D01*
Y255786D01*
X525688D01*
Y255895D01*
X526013D01*
Y256003D01*
X526447D01*
Y256112D01*
X526773D01*
Y256220D01*
X527424D01*
Y256329D01*
X528076D01*
Y256437D01*
X529270D01*
Y256546D01*
X529378D01*
Y256437D01*
X529487D01*
Y256546D01*
X529595D01*
Y256437D01*
X529704D01*
Y256546D01*
X529812D01*
Y256437D01*
D02*
G37*
G36*
X550763Y238526D02*
X550655D01*
Y238418D01*
X550546D01*
Y238309D01*
X550437D01*
Y238201D01*
X550329D01*
Y238092D01*
X550112D01*
Y238201D01*
X550220D01*
Y238309D01*
X550329D01*
Y238418D01*
X550437D01*
Y238526D01*
X550546D01*
Y238635D01*
X550763D01*
Y238526D01*
D02*
G37*
G36*
X550003Y237875D02*
X549895D01*
Y237766D01*
X549786D01*
Y237658D01*
X549569D01*
Y237766D01*
X549678D01*
Y237875D01*
X549786D01*
Y237984D01*
X550003D01*
Y237875D01*
D02*
G37*
G36*
X549135Y237115D02*
X549026D01*
Y237007D01*
X548918D01*
Y236898D01*
X548809D01*
Y236789D01*
X548592D01*
Y236898D01*
X548701D01*
Y237007D01*
X548809D01*
Y237115D01*
X548918D01*
Y237224D01*
X549135D01*
Y237115D01*
D02*
G37*
G36*
X551849Y239395D02*
X551957D01*
Y239286D01*
X552283D01*
Y239178D01*
X552391D01*
Y239069D01*
X552500D01*
Y238961D01*
X552609D01*
Y238852D01*
X552717D01*
Y238743D01*
X552826D01*
Y238635D01*
X552934D01*
Y238526D01*
X553043D01*
Y238418D01*
X553151D01*
Y238309D01*
X553368D01*
Y238201D01*
X553477D01*
Y238092D01*
X553585D01*
Y237984D01*
X553694D01*
Y237875D01*
X553803D01*
Y237766D01*
X553911D01*
Y237658D01*
Y237549D01*
X554020D01*
Y237441D01*
X554128D01*
Y237332D01*
X554237D01*
Y237224D01*
X554345D01*
Y237115D01*
X554454D01*
Y237007D01*
X554563D01*
Y236898D01*
X554671D01*
Y236789D01*
Y236681D01*
X554780D01*
Y236572D01*
Y236464D01*
X554888D01*
Y236355D01*
Y236247D01*
X554997D01*
Y236138D01*
X555105D01*
Y236030D01*
X555214D01*
Y235921D01*
Y235812D01*
X555322D01*
Y235704D01*
X555431D01*
Y235595D01*
Y235487D01*
X555540D01*
Y235378D01*
Y235270D01*
X555648D01*
Y235161D01*
Y235053D01*
X555757D01*
Y234944D01*
Y234836D01*
X555865D01*
Y234727D01*
X555974D01*
Y234618D01*
Y234510D01*
Y234401D01*
X556082D01*
Y234293D01*
Y234184D01*
X556191D01*
Y234076D01*
Y233967D01*
X556299D01*
Y233859D01*
Y233750D01*
Y233641D01*
X556408D01*
Y233533D01*
Y233424D01*
Y233316D01*
X556516D01*
Y233207D01*
Y233099D01*
Y232990D01*
X556625D01*
Y232882D01*
Y232773D01*
Y232664D01*
X556734D01*
Y232556D01*
Y232447D01*
Y232339D01*
Y232230D01*
X556842D01*
Y232122D01*
Y232013D01*
Y231905D01*
Y231796D01*
Y231687D01*
X556951D01*
Y231579D01*
Y231470D01*
Y231362D01*
Y231253D01*
Y231145D01*
X557059D01*
Y231036D01*
Y230928D01*
Y230819D01*
Y230711D01*
Y230602D01*
Y230493D01*
Y230385D01*
X557168D01*
Y230276D01*
Y230168D01*
Y230059D01*
Y229951D01*
Y229842D01*
Y229734D01*
Y229625D01*
Y229516D01*
Y229408D01*
Y229299D01*
Y229191D01*
Y229082D01*
Y228974D01*
Y228865D01*
Y228757D01*
Y228648D01*
Y228539D01*
Y228431D01*
Y228322D01*
Y228214D01*
Y228105D01*
Y227997D01*
X557059D01*
Y227888D01*
Y227780D01*
Y227671D01*
Y227562D01*
Y227454D01*
Y227345D01*
Y227237D01*
X556951D01*
Y227128D01*
Y227020D01*
Y226911D01*
Y226803D01*
Y226694D01*
X556842D01*
Y226586D01*
Y226477D01*
Y226368D01*
Y226260D01*
Y226151D01*
Y226043D01*
X556734D01*
Y225934D01*
Y225826D01*
Y225717D01*
X556625D01*
Y225609D01*
Y225500D01*
Y225391D01*
X556516D01*
Y225283D01*
Y225174D01*
Y225066D01*
X556408D01*
Y224957D01*
Y224849D01*
Y224740D01*
X556299D01*
Y224632D01*
Y224523D01*
Y224414D01*
X556191D01*
Y224306D01*
Y224197D01*
X556082D01*
Y224089D01*
Y223980D01*
Y223872D01*
X555974D01*
Y223763D01*
Y223655D01*
X555865D01*
Y223546D01*
Y223438D01*
X555757D01*
Y223329D01*
X555648D01*
Y223220D01*
Y223112D01*
X555540D01*
Y223003D01*
Y222895D01*
X555431D01*
Y222786D01*
Y222678D01*
X555322D01*
Y222569D01*
X555214D01*
Y222461D01*
Y222352D01*
X555105D01*
Y222243D01*
X554997D01*
Y222135D01*
Y222026D01*
X554888D01*
Y221918D01*
X554780D01*
Y221809D01*
X554671D01*
Y221701D01*
Y221592D01*
X554563D01*
Y221484D01*
Y221375D01*
X554454D01*
Y221266D01*
X554345D01*
Y221158D01*
X554237D01*
Y221049D01*
X554128D01*
Y220941D01*
X554020D01*
Y220832D01*
X553911D01*
Y220724D01*
X553803D01*
Y220615D01*
X553694D01*
Y220507D01*
X553585D01*
Y220398D01*
X553477D01*
Y220289D01*
X553368D01*
Y220181D01*
X553260D01*
Y220072D01*
X553151D01*
Y219964D01*
X553043D01*
Y219855D01*
X552934D01*
Y219747D01*
X552826D01*
Y219638D01*
X552717D01*
Y219530D01*
X552609D01*
Y219421D01*
X552500D01*
Y219313D01*
X552391D01*
Y219204D01*
X552174D01*
Y219095D01*
X552066D01*
Y218987D01*
X551957D01*
Y218878D01*
X551632D01*
Y218770D01*
X551523D01*
Y218661D01*
X551414D01*
Y218553D01*
X551197D01*
Y218444D01*
X551089D01*
Y218336D01*
X550872D01*
Y218227D01*
X550546D01*
Y218118D01*
X550437D01*
Y218010D01*
X550220D01*
Y217901D01*
X550112D01*
Y217793D01*
X549786D01*
Y217684D01*
X549569D01*
Y217576D01*
X549243D01*
Y217467D01*
X548918D01*
Y217359D01*
X548701D01*
Y217250D01*
X548266D01*
Y217141D01*
X547941D01*
Y217033D01*
X547507D01*
Y216924D01*
X547072D01*
Y216816D01*
X546095D01*
Y216707D01*
X545010D01*
Y216599D01*
X544250D01*
Y216707D01*
X542947D01*
Y216816D01*
X542839D01*
Y216707D01*
X542730D01*
Y216816D01*
X542296D01*
Y216924D01*
X541645D01*
Y217033D01*
X541319D01*
Y217141D01*
X540885D01*
Y217250D01*
X540559D01*
Y217359D01*
X540234D01*
Y217467D01*
X540016D01*
Y217576D01*
X539691D01*
Y217684D01*
X539365D01*
Y217793D01*
X539257D01*
Y217901D01*
X539040D01*
Y218010D01*
X538822D01*
Y218118D01*
X538605D01*
Y218227D01*
X538497D01*
Y218336D01*
X538171D01*
Y218444D01*
X537954D01*
Y218553D01*
X537845D01*
Y218661D01*
X537737D01*
Y218770D01*
X537520D01*
Y218878D01*
X537411D01*
Y218987D01*
X537085D01*
Y219095D01*
X536977D01*
Y219204D01*
X536868D01*
Y219313D01*
X536760D01*
Y219421D01*
X536651D01*
Y219530D01*
X536543D01*
Y219638D01*
X536434D01*
Y219747D01*
X536326D01*
Y219855D01*
X536109D01*
Y219964D01*
X536000D01*
Y220072D01*
X535891D01*
Y220181D01*
Y220289D01*
X535783D01*
Y220398D01*
X535674D01*
Y220507D01*
X535566D01*
Y220615D01*
X535349D01*
Y220724D01*
X535240D01*
Y220832D01*
X535132D01*
Y220941D01*
X535023D01*
Y221049D01*
X534914D01*
Y221158D01*
X534806D01*
Y221266D01*
X534697D01*
Y221375D01*
Y221484D01*
X534589D01*
Y221592D01*
X534480D01*
Y221701D01*
X534589D01*
Y221809D01*
X534806D01*
Y221918D01*
X534914D01*
Y222026D01*
X535023D01*
Y222135D01*
X535240D01*
Y222243D01*
X535349D01*
Y222352D01*
X535457D01*
Y222461D01*
X535674D01*
Y222569D01*
X535783D01*
Y222678D01*
X535891D01*
Y222786D01*
X536000D01*
Y222895D01*
X536109D01*
Y223003D01*
X536326D01*
Y223112D01*
X536434D01*
Y223220D01*
X536543D01*
Y223329D01*
X536651D01*
Y223438D01*
Y223546D01*
Y223655D01*
Y223763D01*
Y223872D01*
Y223980D01*
Y224089D01*
X536760D01*
Y224197D01*
Y224306D01*
Y224414D01*
Y224523D01*
Y224632D01*
Y224740D01*
Y224849D01*
X536651D01*
Y224957D01*
X536760D01*
Y225066D01*
X536868D01*
Y225174D01*
X536977D01*
Y225283D01*
Y225391D01*
Y225500D01*
Y225609D01*
Y225717D01*
Y225826D01*
X537085D01*
Y225934D01*
Y226043D01*
Y226151D01*
Y226260D01*
Y226368D01*
Y226477D01*
Y226586D01*
Y226694D01*
X537194D01*
Y226803D01*
Y226911D01*
Y227020D01*
Y227128D01*
Y227237D01*
Y227345D01*
Y227454D01*
Y227562D01*
X537303D01*
Y227671D01*
Y227780D01*
Y227888D01*
Y227997D01*
Y228105D01*
Y228214D01*
Y228322D01*
Y228431D01*
X537411D01*
Y228539D01*
Y228648D01*
Y228757D01*
Y228865D01*
Y228974D01*
Y229082D01*
Y229191D01*
X537520D01*
Y229299D01*
Y229408D01*
Y229516D01*
Y229625D01*
Y229734D01*
Y229842D01*
Y229951D01*
Y230059D01*
X537628D01*
Y230168D01*
Y230276D01*
Y230385D01*
Y230493D01*
Y230602D01*
Y230711D01*
Y230819D01*
Y230928D01*
X537737D01*
Y231036D01*
Y231145D01*
Y231253D01*
Y231362D01*
Y231470D01*
Y231579D01*
Y231687D01*
X537845D01*
Y231796D01*
Y231905D01*
Y232013D01*
Y232122D01*
Y232230D01*
Y232339D01*
Y232447D01*
Y232556D01*
X537954D01*
Y232664D01*
Y232773D01*
Y232882D01*
Y232990D01*
Y233099D01*
Y233207D01*
Y233316D01*
Y233424D01*
X538062D01*
Y233533D01*
Y233641D01*
Y233750D01*
Y233859D01*
Y233967D01*
Y234076D01*
Y234184D01*
Y234293D01*
X538171D01*
Y234401D01*
Y234510D01*
X538062D01*
Y234618D01*
X537954D01*
Y234727D01*
Y234836D01*
Y234944D01*
X537845D01*
Y235053D01*
Y235161D01*
X537954D01*
Y235270D01*
Y235378D01*
Y235487D01*
Y235595D01*
X538062D01*
Y235704D01*
X538171D01*
Y235812D01*
X539040D01*
Y235704D01*
X539257D01*
Y235595D01*
X539582D01*
Y235704D01*
X540559D01*
Y235812D01*
X541645D01*
Y235921D01*
X542730D01*
Y236030D01*
X543707D01*
Y236138D01*
X544793D01*
Y236247D01*
X545770D01*
Y236355D01*
X546855D01*
Y236464D01*
X547832D01*
Y236572D01*
X548375D01*
Y236681D01*
X548484D01*
Y236789D01*
X548592D01*
Y236681D01*
X549026D01*
Y236789D01*
X549135D01*
Y236681D01*
X549243D01*
Y236789D01*
X550112D01*
Y236898D01*
X550220D01*
Y237007D01*
X550329D01*
Y237115D01*
X550437D01*
Y237224D01*
X550546D01*
Y237332D01*
X550655D01*
Y237441D01*
Y237549D01*
X550763D01*
Y237658D01*
X550872D01*
Y237766D01*
X550980D01*
Y237875D01*
X551089D01*
Y237984D01*
X551197D01*
Y238092D01*
Y238201D01*
X551306D01*
Y238309D01*
X551414D01*
Y238418D01*
X551523D01*
Y238526D01*
X551632D01*
Y238635D01*
Y238743D01*
X551740D01*
Y238852D01*
Y238961D01*
X551849D01*
Y239069D01*
Y239178D01*
X551523D01*
Y239069D01*
X551414D01*
Y238961D01*
X551197D01*
Y238852D01*
X551089D01*
Y238743D01*
X550980D01*
Y238635D01*
X550763D01*
Y238743D01*
X550872D01*
Y238852D01*
X550980D01*
Y238961D01*
X551089D01*
Y239069D01*
X551306D01*
Y239178D01*
X551414D01*
Y239286D01*
X551632D01*
Y239395D01*
X551740D01*
Y239503D01*
X551849D01*
Y239395D01*
D02*
G37*
G36*
X534914Y222678D02*
Y222569D01*
X534806D01*
Y222678D01*
Y222786D01*
X534914D01*
Y222678D01*
D02*
G37*
G36*
X534589Y222243D02*
Y222135D01*
X534480D01*
Y222243D01*
Y222352D01*
X534589D01*
Y222243D01*
D02*
G37*
G36*
X534480Y222026D02*
Y221918D01*
X534263D01*
Y222026D01*
X534372D01*
Y222135D01*
X534480D01*
Y222026D01*
D02*
G37*
%LPC*%
G36*
X537914Y286171D02*
X533357D01*
Y286014D01*
X532257D01*
Y285857D01*
X531629D01*
Y285700D01*
X531157D01*
Y285543D01*
X530686D01*
Y285386D01*
X530371D01*
Y285229D01*
X530214D01*
Y285071D01*
X530057D01*
Y284914D01*
X529900D01*
Y284757D01*
X529743D01*
Y284600D01*
Y284443D01*
X529586D01*
Y284286D01*
Y284129D01*
Y283971D01*
Y283814D01*
Y283657D01*
Y283500D01*
Y283343D01*
X529743D01*
Y283186D01*
Y283029D01*
X529900D01*
Y282871D01*
Y282714D01*
X530057D01*
Y282557D01*
X530214D01*
Y282400D01*
Y282243D01*
X530371D01*
Y282086D01*
X530529D01*
Y281929D01*
X530843D01*
Y281771D01*
X531000D01*
Y281614D01*
X531157D01*
Y281457D01*
X531471D01*
Y281300D01*
X531786D01*
Y281143D01*
X532257D01*
Y280986D01*
X539014D01*
Y281143D01*
X539486D01*
Y281300D01*
X539800D01*
Y281457D01*
X540114D01*
Y281614D01*
X540271D01*
Y281771D01*
X540429D01*
Y281929D01*
X540586D01*
Y282086D01*
X540743D01*
Y282243D01*
X540900D01*
Y282400D01*
X541057D01*
Y282557D01*
X541214D01*
Y282714D01*
X541371D01*
Y282871D01*
Y283029D01*
X541529D01*
Y283186D01*
Y283343D01*
X541686D01*
Y283500D01*
Y283657D01*
Y283814D01*
Y283971D01*
Y284129D01*
Y284286D01*
Y284443D01*
X541529D01*
Y284600D01*
Y284757D01*
X541371D01*
Y284914D01*
X541214D01*
Y285071D01*
X541057D01*
Y285229D01*
X540743D01*
Y285386D01*
X540429D01*
Y285543D01*
X540114D01*
Y285700D01*
X539643D01*
Y285857D01*
X539014D01*
Y286014D01*
X537914D01*
Y286171D01*
D02*
G37*
G36*
X536971Y275643D02*
X534457D01*
Y275486D01*
X533514D01*
Y275329D01*
X533043D01*
Y275171D01*
X532571D01*
Y275014D01*
X532257D01*
Y274857D01*
X532100D01*
Y274700D01*
X531786D01*
Y274543D01*
X531629D01*
Y274386D01*
X531471D01*
Y274229D01*
X531314D01*
Y274071D01*
Y273914D01*
X531157D01*
Y273757D01*
Y273600D01*
X531000D01*
Y273443D01*
Y273286D01*
X530843D01*
Y273129D01*
Y272971D01*
Y272814D01*
Y272657D01*
X530686D01*
Y272500D01*
Y272343D01*
Y272186D01*
Y272029D01*
Y271871D01*
Y271714D01*
Y271557D01*
Y271400D01*
Y271243D01*
X530843D01*
Y271086D01*
Y270929D01*
Y270771D01*
Y270614D01*
X531000D01*
Y270457D01*
Y270300D01*
X531157D01*
Y270143D01*
X531314D01*
Y269986D01*
X531471D01*
Y269829D01*
X531629D01*
Y269671D01*
X532100D01*
Y269514D01*
X532571D01*
Y269357D01*
X533514D01*
Y269200D01*
X538071D01*
Y269357D01*
X539014D01*
Y269514D01*
X539329D01*
Y269671D01*
X539643D01*
Y269829D01*
X539957D01*
Y269986D01*
X540114D01*
Y270143D01*
Y270300D01*
X540271D01*
Y270457D01*
Y270614D01*
X540429D01*
Y270771D01*
Y270929D01*
Y271086D01*
Y271243D01*
Y271400D01*
X540586D01*
Y271557D01*
Y271714D01*
Y271871D01*
Y272029D01*
Y272186D01*
Y272343D01*
Y272500D01*
X540429D01*
Y272657D01*
Y272814D01*
Y272971D01*
Y273129D01*
Y273286D01*
X540271D01*
Y273443D01*
Y273600D01*
Y273757D01*
X540114D01*
Y273914D01*
X539957D01*
Y274071D01*
Y274229D01*
X539800D01*
Y274386D01*
X539643D01*
Y274543D01*
X539486D01*
Y274700D01*
X539329D01*
Y274857D01*
X539014D01*
Y275014D01*
X538700D01*
Y275171D01*
X538386D01*
Y275329D01*
X537914D01*
Y275486D01*
X536971D01*
Y275643D01*
D02*
G37*
G36*
X536814Y267786D02*
X535400D01*
Y267629D01*
Y267471D01*
Y267314D01*
Y267157D01*
Y267000D01*
Y266843D01*
Y266686D01*
Y266529D01*
Y266371D01*
Y266214D01*
Y266057D01*
Y265900D01*
Y265743D01*
Y265586D01*
Y265429D01*
Y265271D01*
Y265114D01*
X535871D01*
Y265271D01*
X536029D01*
Y265429D01*
Y265586D01*
Y265743D01*
Y265900D01*
Y266057D01*
Y266214D01*
X536186D01*
Y266057D01*
Y265900D01*
X536343D01*
Y265743D01*
Y265586D01*
X536500D01*
Y265429D01*
X536657D01*
Y265271D01*
Y265114D01*
X537286D01*
Y265271D01*
Y265429D01*
Y265586D01*
X537129D01*
Y265743D01*
X536971D01*
Y265900D01*
Y266057D01*
X536814D01*
Y266214D01*
X536657D01*
Y266371D01*
X536971D01*
Y266529D01*
X537129D01*
Y266686D01*
X537286D01*
Y266843D01*
Y267000D01*
Y267157D01*
Y267314D01*
Y267471D01*
X537129D01*
Y267629D01*
X536814D01*
Y267786D01*
D02*
G37*
%LPD*%
G36*
X536500Y267157D02*
X536657D01*
Y267000D01*
Y266843D01*
X536500D01*
Y266686D01*
X536029D01*
Y266843D01*
Y267000D01*
Y267157D01*
Y267314D01*
X536500D01*
Y267157D01*
D02*
G37*
%LPC*%
G36*
X540429Y267786D02*
X538700D01*
Y267629D01*
Y267471D01*
Y267314D01*
X539171D01*
Y267157D01*
X539329D01*
Y267000D01*
Y266843D01*
Y266686D01*
Y266529D01*
Y266371D01*
Y266214D01*
Y266057D01*
Y265900D01*
Y265743D01*
Y265586D01*
Y265429D01*
Y265271D01*
Y265114D01*
X539800D01*
Y265271D01*
Y265429D01*
Y265586D01*
Y265743D01*
Y265900D01*
Y266057D01*
Y266214D01*
Y266371D01*
Y266529D01*
Y266686D01*
Y266843D01*
Y267000D01*
Y267157D01*
Y267314D01*
X540429D01*
Y267471D01*
Y267629D01*
Y267786D01*
D02*
G37*
G36*
X533043D02*
X531629D01*
Y267629D01*
X531314D01*
Y267471D01*
X531157D01*
Y267314D01*
X531000D01*
Y267157D01*
Y267000D01*
X530843D01*
Y266843D01*
Y266686D01*
Y266529D01*
Y266371D01*
Y266214D01*
Y266057D01*
Y265900D01*
X531000D01*
Y265743D01*
Y265586D01*
X531157D01*
Y265429D01*
X531471D01*
Y265271D01*
X531786D01*
Y265114D01*
X532886D01*
Y265271D01*
X533200D01*
Y265429D01*
X533357D01*
Y265586D01*
X533514D01*
Y265743D01*
X533671D01*
Y265900D01*
X533829D01*
Y266057D01*
Y266214D01*
Y266371D01*
Y266529D01*
Y266686D01*
Y266843D01*
Y267000D01*
X533671D01*
Y267157D01*
Y267314D01*
X533514D01*
Y267471D01*
X533200D01*
Y267629D01*
X533043D01*
Y267786D01*
D02*
G37*
%LPD*%
G36*
X532729Y267157D02*
X533043D01*
Y267000D01*
Y266843D01*
X533200D01*
Y266686D01*
Y266529D01*
Y266371D01*
Y266214D01*
Y266057D01*
X533043D01*
Y265900D01*
X532886D01*
Y265743D01*
X532571D01*
Y265586D01*
X532100D01*
Y265743D01*
X531786D01*
Y265900D01*
X531629D01*
Y266057D01*
X531471D01*
Y266214D01*
Y266371D01*
Y266529D01*
Y266686D01*
Y266843D01*
Y267000D01*
X531629D01*
Y267157D01*
X531943D01*
Y267314D01*
X532729D01*
Y267157D01*
D02*
G37*
%LPC*%
G36*
X532414Y267000D02*
X532257D01*
Y266843D01*
X531943D01*
Y266686D01*
X531786D01*
Y266529D01*
Y266371D01*
Y266214D01*
X531943D01*
Y266057D01*
X532571D01*
Y266214D01*
X532729D01*
Y266371D01*
X532886D01*
Y266529D01*
X532729D01*
Y266686D01*
Y266843D01*
X532414D01*
Y267000D01*
D02*
G37*
G36*
X529487Y256329D02*
X529378D01*
Y256220D01*
X529270D01*
Y256329D01*
X529161D01*
Y256220D01*
X527859D01*
Y256112D01*
X527316D01*
Y256003D01*
X526773D01*
Y255895D01*
X526339D01*
Y255786D01*
X525905D01*
Y255678D01*
X525579D01*
Y255569D01*
X525253D01*
Y255461D01*
X525036D01*
Y255352D01*
X524711D01*
Y255243D01*
X524493D01*
Y255135D01*
X524276D01*
Y255026D01*
X524059D01*
Y254918D01*
X523842D01*
Y254809D01*
X523625D01*
Y254701D01*
X523408D01*
Y254592D01*
X523299D01*
Y254484D01*
X523082D01*
Y254375D01*
X522974D01*
Y254266D01*
X522757D01*
Y254158D01*
X522648D01*
Y254049D01*
X522431D01*
Y253941D01*
X522322D01*
Y253832D01*
X522105D01*
Y253724D01*
X521997D01*
Y253615D01*
X521888D01*
Y253507D01*
X521780D01*
Y253398D01*
X521562D01*
Y253290D01*
X521454D01*
Y253181D01*
X521345D01*
Y253072D01*
X521237D01*
Y252964D01*
X521128D01*
Y252855D01*
X521020D01*
Y252747D01*
X520911D01*
Y252638D01*
X520803D01*
Y252530D01*
X520694D01*
Y252421D01*
X520585D01*
Y252312D01*
X520477D01*
Y252204D01*
X520368D01*
Y252095D01*
X520260D01*
Y251987D01*
X520151D01*
Y251878D01*
X520043D01*
Y251770D01*
Y251661D01*
X519934D01*
Y251553D01*
X519826D01*
Y251444D01*
X519717D01*
Y251336D01*
Y251227D01*
X519609D01*
Y251118D01*
X519500D01*
Y251010D01*
X519391D01*
Y250901D01*
Y250793D01*
X519283D01*
Y250684D01*
X519174D01*
Y250576D01*
Y250467D01*
X519066D01*
Y250359D01*
X518957D01*
Y250250D01*
Y250141D01*
X518849D01*
Y250033D01*
Y249924D01*
X518740D01*
Y249816D01*
Y249707D01*
X518632D01*
Y249599D01*
Y249490D01*
X518523D01*
Y249382D01*
Y249273D01*
X518414D01*
Y249165D01*
Y249056D01*
X518306D01*
Y248947D01*
Y248839D01*
X518197D01*
Y248730D01*
Y248622D01*
X518089D01*
Y248513D01*
Y248405D01*
Y248296D01*
X517980D01*
Y248187D01*
Y248079D01*
X517872D01*
Y247970D01*
Y247862D01*
Y247753D01*
X517763D01*
Y247645D01*
Y247536D01*
Y247428D01*
Y247319D01*
X517655D01*
Y247211D01*
Y247102D01*
Y246993D01*
X517546D01*
Y246885D01*
Y246776D01*
Y246668D01*
Y246559D01*
Y246451D01*
X517438D01*
Y246342D01*
Y246234D01*
Y246125D01*
Y246016D01*
Y245908D01*
Y245799D01*
X517329D01*
Y245691D01*
Y245582D01*
Y245474D01*
Y245365D01*
Y245257D01*
Y245148D01*
Y245040D01*
Y244931D01*
X517220D01*
Y244822D01*
Y244714D01*
Y244605D01*
Y244497D01*
Y244388D01*
Y244280D01*
Y244171D01*
Y244062D01*
Y243954D01*
Y243845D01*
Y243737D01*
Y243628D01*
Y243520D01*
Y243411D01*
Y243303D01*
Y243194D01*
Y243086D01*
Y242977D01*
Y242868D01*
X517329D01*
Y242760D01*
Y242651D01*
Y242543D01*
Y242434D01*
Y242326D01*
Y242217D01*
Y242109D01*
Y242000D01*
X517438D01*
Y241891D01*
Y241783D01*
Y241674D01*
Y241566D01*
Y241457D01*
Y241349D01*
X517546D01*
Y241240D01*
Y241132D01*
Y241023D01*
Y240915D01*
X517655D01*
Y240806D01*
Y240697D01*
Y240589D01*
Y240480D01*
X517763D01*
Y240372D01*
Y240263D01*
Y240155D01*
X517872D01*
Y240046D01*
Y239937D01*
Y239829D01*
X517980D01*
Y239720D01*
Y239612D01*
Y239503D01*
X518089D01*
Y239395D01*
Y239286D01*
X518197D01*
Y239178D01*
Y239069D01*
Y238961D01*
X518306D01*
Y238852D01*
Y238743D01*
X518414D01*
Y238635D01*
Y238526D01*
X518523D01*
Y238418D01*
Y238309D01*
X518632D01*
Y238201D01*
Y238092D01*
X518740D01*
Y237984D01*
Y237875D01*
X518849D01*
Y237766D01*
Y237658D01*
X518957D01*
Y237549D01*
X519066D01*
Y237441D01*
Y237332D01*
X519174D01*
Y237224D01*
X519283D01*
Y237115D01*
Y237007D01*
X519391D01*
Y236898D01*
X519500D01*
Y236789D01*
Y236681D01*
X519609D01*
Y236572D01*
X519717D01*
Y236464D01*
Y236355D01*
X519826D01*
Y236247D01*
X519934D01*
Y236138D01*
X520043D01*
Y236030D01*
X520151D01*
Y235921D01*
Y235812D01*
X520260D01*
Y235704D01*
X520368D01*
Y235595D01*
X520477D01*
Y235487D01*
X520585D01*
Y235378D01*
X520694D01*
Y235270D01*
X520803D01*
Y235161D01*
X520911D01*
Y235053D01*
X521020D01*
Y234944D01*
X521128D01*
Y234836D01*
X521345D01*
Y234727D01*
Y234618D01*
X521562D01*
Y234510D01*
X521671D01*
Y234401D01*
X521780D01*
Y234293D01*
X521888D01*
Y234184D01*
X521997D01*
Y234076D01*
X522214D01*
Y234184D01*
X522105D01*
Y234293D01*
Y234401D01*
X521997D01*
Y234510D01*
Y234618D01*
X521888D01*
Y234727D01*
Y234836D01*
X521780D01*
Y234944D01*
Y235053D01*
X521671D01*
Y235161D01*
Y235270D01*
X521562D01*
Y235378D01*
Y235487D01*
X521454D01*
Y235595D01*
Y235704D01*
Y235812D01*
X521345D01*
Y235921D01*
Y236030D01*
Y236138D01*
X521237D01*
Y236247D01*
Y236355D01*
Y236464D01*
X521128D01*
Y236572D01*
Y236681D01*
Y236789D01*
X521020D01*
Y236898D01*
Y237007D01*
Y237115D01*
X520911D01*
Y237224D01*
Y237332D01*
Y237441D01*
Y237549D01*
X520803D01*
Y237658D01*
Y237766D01*
Y237875D01*
Y237984D01*
Y238092D01*
X520694D01*
Y238201D01*
Y238309D01*
Y238418D01*
Y238526D01*
Y238635D01*
Y238743D01*
X520585D01*
Y238852D01*
Y238961D01*
Y239069D01*
Y239178D01*
Y239286D01*
Y239395D01*
Y239503D01*
Y239612D01*
Y239720D01*
Y239829D01*
Y239937D01*
Y240046D01*
Y240155D01*
Y240263D01*
Y240372D01*
Y240480D01*
Y240589D01*
Y240697D01*
Y240806D01*
Y240915D01*
Y241023D01*
Y241132D01*
Y241240D01*
Y241349D01*
Y241457D01*
Y241566D01*
Y241674D01*
Y241783D01*
Y241891D01*
X520694D01*
Y242000D01*
Y242109D01*
Y242217D01*
Y242326D01*
Y242434D01*
Y242543D01*
Y242651D01*
X520803D01*
Y242760D01*
Y242868D01*
Y242977D01*
Y243086D01*
Y243194D01*
X520911D01*
Y243303D01*
Y243411D01*
Y243520D01*
Y243628D01*
X521020D01*
Y243737D01*
Y243845D01*
Y243954D01*
X521128D01*
Y244062D01*
Y244171D01*
Y244280D01*
X521237D01*
Y244388D01*
Y244497D01*
Y244605D01*
X521345D01*
Y244714D01*
Y244822D01*
Y244931D01*
X521454D01*
Y245040D01*
Y245148D01*
Y245257D01*
X521562D01*
Y245365D01*
Y245474D01*
X521671D01*
Y245582D01*
Y245691D01*
X521780D01*
Y245799D01*
Y245908D01*
X521888D01*
Y246016D01*
Y246125D01*
X521997D01*
Y246234D01*
Y246342D01*
X522105D01*
Y246451D01*
Y246559D01*
X522214D01*
Y246668D01*
Y246776D01*
X522322D01*
Y246885D01*
X522431D01*
Y246993D01*
Y247102D01*
X522540D01*
Y247211D01*
X522648D01*
Y247319D01*
Y247428D01*
X522757D01*
Y247536D01*
Y247645D01*
X522865D01*
Y247753D01*
X522974D01*
Y247862D01*
X523082D01*
Y247970D01*
Y248079D01*
X523191D01*
Y248187D01*
X523299D01*
Y248296D01*
X523408D01*
Y248405D01*
X523516D01*
Y248513D01*
X523625D01*
Y248622D01*
X523734D01*
Y248730D01*
X523842D01*
Y248839D01*
X523951D01*
Y248947D01*
Y249056D01*
X524059D01*
Y249165D01*
X524168D01*
Y249273D01*
X524276D01*
Y249382D01*
X524385D01*
Y249490D01*
X524493D01*
Y249599D01*
X524602D01*
Y249707D01*
X524819D01*
Y249816D01*
Y249924D01*
X524928D01*
Y250033D01*
X525145D01*
Y250141D01*
X525253D01*
Y250250D01*
X525362D01*
Y250359D01*
X525470D01*
Y250467D01*
X525688D01*
Y250576D01*
X525796D01*
Y250684D01*
X526013D01*
Y250793D01*
X526122D01*
Y250901D01*
X526230D01*
Y251010D01*
X526447D01*
Y251118D01*
X526556D01*
Y251227D01*
X526773D01*
Y251336D01*
X526990D01*
Y251444D01*
X527207D01*
Y251553D01*
X527424D01*
Y251661D01*
X527641D01*
Y251770D01*
X527859D01*
Y251878D01*
X528076D01*
Y251987D01*
X528293D01*
Y252095D01*
X528618D01*
Y252204D01*
X528944D01*
Y252312D01*
X529270D01*
Y252421D01*
X529595D01*
Y252530D01*
X529921D01*
Y252638D01*
X530355D01*
Y252747D01*
X531007D01*
Y252855D01*
X531766D01*
Y252964D01*
X534589D01*
Y252855D01*
X535349D01*
Y252747D01*
X535891D01*
Y252638D01*
X536326D01*
Y252530D01*
X536651D01*
Y252421D01*
X537085D01*
Y252312D01*
X537411D01*
Y252204D01*
X537628D01*
Y252095D01*
X537954D01*
Y251987D01*
X538171D01*
Y251878D01*
X538388D01*
Y251770D01*
X538714D01*
Y251661D01*
X538931D01*
Y251553D01*
X539148D01*
Y251444D01*
X539365D01*
Y251553D01*
X539257D01*
Y251661D01*
X539148D01*
Y251770D01*
X539040D01*
Y251878D01*
Y251987D01*
X538931D01*
Y252095D01*
X538822D01*
Y252204D01*
X538714D01*
Y252312D01*
X538605D01*
Y252421D01*
X538497D01*
Y252530D01*
X538388D01*
Y252638D01*
X538280D01*
Y252747D01*
X538171D01*
Y252855D01*
X537954D01*
Y252964D01*
Y253072D01*
X537845D01*
Y253181D01*
X537737D01*
Y253290D01*
X537520D01*
Y253398D01*
X537411D01*
Y253507D01*
X537303D01*
Y253615D01*
X537194D01*
Y253724D01*
X537085D01*
Y253832D01*
X536868D01*
Y253941D01*
X536760D01*
Y254049D01*
X536543D01*
Y254158D01*
X536434D01*
Y254266D01*
X536217D01*
Y254375D01*
X536109D01*
Y254484D01*
X535891D01*
Y254592D01*
X535783D01*
Y254701D01*
X535566D01*
Y254809D01*
X535349D01*
Y254918D01*
X535132D01*
Y255026D01*
X534914D01*
Y255135D01*
X534697D01*
Y255243D01*
X534372D01*
Y255352D01*
X534155D01*
Y255461D01*
X533829D01*
Y255569D01*
X533612D01*
Y255678D01*
X533286D01*
Y255786D01*
X532852D01*
Y255895D01*
X532418D01*
Y256003D01*
X531984D01*
Y256112D01*
X531224D01*
Y256220D01*
X529487D01*
Y256329D01*
D02*
G37*
G36*
X539474Y251227D02*
X539365D01*
Y251118D01*
X539474D01*
Y251227D01*
D02*
G37*
G36*
X539040Y250793D02*
X538931D01*
Y250684D01*
X539040D01*
Y250793D01*
D02*
G37*
G36*
X538714Y250359D02*
X538605D01*
Y250250D01*
X538714D01*
Y250359D01*
D02*
G37*
G36*
X538497Y250141D02*
X538388D01*
Y250033D01*
X538497D01*
Y250141D01*
D02*
G37*
G36*
X537954Y249707D02*
X537845D01*
Y249599D01*
X537954D01*
Y249707D01*
D02*
G37*
G36*
X536543Y248296D02*
X536434D01*
Y248187D01*
X536543D01*
Y248296D01*
D02*
G37*
G36*
X536217Y248079D02*
X536109D01*
Y247970D01*
X536217D01*
Y248079D01*
D02*
G37*
G36*
X535891Y247862D02*
X535783D01*
Y247753D01*
X535891D01*
Y247862D01*
D02*
G37*
G36*
X535240Y247211D02*
X535132D01*
Y247102D01*
X535240D01*
Y247211D01*
D02*
G37*
G36*
X534806Y246776D02*
X534697D01*
Y246668D01*
X534806D01*
Y246776D01*
D02*
G37*
G36*
X534589Y246451D02*
X534480D01*
Y246342D01*
X534589D01*
Y246451D01*
D02*
G37*
G36*
X533938Y246234D02*
X533829D01*
Y246125D01*
X533938D01*
Y246234D01*
D02*
G37*
G36*
X536651Y247319D02*
X536434D01*
Y247211D01*
X536326D01*
Y247102D01*
X536217D01*
Y246993D01*
X536109D01*
Y246885D01*
Y246776D01*
X536000D01*
Y246668D01*
X535891D01*
Y246559D01*
X535783D01*
Y246451D01*
X535674D01*
Y246342D01*
X535566D01*
Y246234D01*
X535457D01*
Y246125D01*
X535349D01*
Y246016D01*
X535240D01*
Y245908D01*
X535132D01*
Y245799D01*
X535023D01*
Y245691D01*
X534914D01*
Y245582D01*
X534806D01*
Y245474D01*
X534697D01*
Y245365D01*
X534589D01*
Y245474D01*
X534480D01*
Y245365D01*
X534589D01*
Y245257D01*
Y245148D01*
X534372D01*
Y245040D01*
Y244931D01*
X534155D01*
Y244822D01*
Y244714D01*
X534046D01*
Y244605D01*
X533938D01*
Y244497D01*
X533720D01*
Y244388D01*
Y244280D01*
X533503D01*
Y244171D01*
Y244062D01*
X533395D01*
Y243954D01*
X533286D01*
Y243845D01*
X533178D01*
Y243954D01*
X533069D01*
Y243845D01*
X533178D01*
Y243737D01*
X533069D01*
Y243628D01*
X532852D01*
Y243520D01*
Y243411D01*
X532743D01*
Y243303D01*
X532635D01*
Y243194D01*
X532526D01*
Y243086D01*
X532309D01*
Y242977D01*
Y242868D01*
X532201D01*
Y242760D01*
X532092D01*
Y242651D01*
X531984D01*
Y242543D01*
X531875D01*
Y242434D01*
X531766D01*
Y242326D01*
X531658D01*
Y242217D01*
Y242109D01*
X531766D01*
Y242000D01*
X531875D01*
Y241891D01*
X531984D01*
Y241783D01*
X532092D01*
Y241674D01*
X532201D01*
Y241566D01*
X532309D01*
Y241457D01*
X532418D01*
Y241349D01*
X532526D01*
Y241240D01*
X532635D01*
Y241132D01*
X532743D01*
Y241023D01*
X532852D01*
Y240915D01*
X532961D01*
Y240806D01*
X533069D01*
Y240697D01*
X533178D01*
Y240589D01*
X533286D01*
Y240480D01*
X533395D01*
Y240372D01*
X533503D01*
Y240263D01*
X533612D01*
Y240155D01*
X533720D01*
Y240046D01*
X533829D01*
Y239937D01*
X533938D01*
Y239829D01*
X534046D01*
Y239720D01*
X534155D01*
Y239612D01*
X534263D01*
Y239503D01*
X534372D01*
Y239395D01*
X534480D01*
Y239286D01*
X534589D01*
Y239178D01*
X534697D01*
Y239069D01*
X534806D01*
Y238961D01*
X534914D01*
Y238852D01*
X535349D01*
Y238961D01*
X535566D01*
Y239069D01*
Y239178D01*
Y239286D01*
Y239395D01*
Y239503D01*
X535674D01*
Y239612D01*
Y239720D01*
Y239829D01*
Y239937D01*
Y240046D01*
Y240155D01*
Y240263D01*
Y240372D01*
X535783D01*
Y240480D01*
Y240589D01*
Y240697D01*
Y240806D01*
Y240915D01*
Y241023D01*
Y241132D01*
Y241240D01*
X535891D01*
Y241349D01*
Y241457D01*
Y241566D01*
Y241674D01*
Y241783D01*
Y241891D01*
Y242000D01*
X536000D01*
Y242109D01*
Y242217D01*
Y242326D01*
Y242434D01*
Y242543D01*
Y242651D01*
Y242760D01*
Y242868D01*
Y242977D01*
X536109D01*
Y243086D01*
Y243194D01*
Y243303D01*
Y243411D01*
Y243520D01*
Y243628D01*
Y243737D01*
Y243845D01*
X536217D01*
Y243954D01*
Y244062D01*
Y244171D01*
Y244280D01*
Y244388D01*
Y244497D01*
X536326D01*
Y244605D01*
Y244714D01*
Y244822D01*
Y244931D01*
Y245040D01*
Y245148D01*
Y245257D01*
Y245365D01*
Y245474D01*
X536434D01*
Y245582D01*
Y245691D01*
Y245799D01*
Y245908D01*
Y246016D01*
Y246125D01*
Y246234D01*
X536543D01*
Y246342D01*
Y246451D01*
Y246559D01*
Y246668D01*
Y246776D01*
Y246885D01*
Y246993D01*
Y247102D01*
X536651D01*
Y247211D01*
Y247319D01*
D02*
G37*
G36*
X533286Y245365D02*
X533178D01*
Y245257D01*
X533286D01*
Y245365D01*
D02*
G37*
G36*
X533938Y245148D02*
X533829D01*
Y245040D01*
X533938D01*
Y245148D01*
D02*
G37*
G36*
X532961D02*
X532852D01*
Y245040D01*
X532961D01*
Y245148D01*
D02*
G37*
G36*
X532852Y244822D02*
X532743D01*
Y244714D01*
X532852D01*
Y244822D01*
D02*
G37*
G36*
X532201Y244714D02*
X532092D01*
Y244605D01*
X532201D01*
Y244714D01*
D02*
G37*
G36*
Y244171D02*
X532092D01*
Y244062D01*
X532201D01*
Y244171D01*
D02*
G37*
G36*
X531875D02*
X531766D01*
Y244062D01*
X531875D01*
Y244171D01*
D02*
G37*
G36*
X531658Y242868D02*
X531549D01*
Y242760D01*
X531658D01*
Y242868D01*
D02*
G37*
G36*
X531007Y242760D02*
X530898D01*
Y242651D01*
X531007D01*
Y242760D01*
D02*
G37*
G36*
X530681Y241891D02*
X530572D01*
Y241783D01*
X530681D01*
Y241891D01*
D02*
G37*
G36*
X530138Y241566D02*
X530030D01*
Y241457D01*
X530138D01*
Y241566D01*
D02*
G37*
G36*
X529487D02*
X529378D01*
Y241457D01*
X529487D01*
Y241566D01*
D02*
G37*
G36*
X528944Y240806D02*
X528835D01*
Y240697D01*
X528944D01*
Y240806D01*
D02*
G37*
G36*
X528727Y240697D02*
X528618D01*
Y240589D01*
X528727D01*
Y240697D01*
D02*
G37*
G36*
X528293D02*
X528184D01*
Y240589D01*
X528293D01*
Y240697D01*
D02*
G37*
G36*
X528184Y240372D02*
X528076D01*
Y240263D01*
X528184D01*
Y240372D01*
D02*
G37*
G36*
X527967Y240046D02*
X527859D01*
Y239937D01*
X527967D01*
Y240046D01*
D02*
G37*
G36*
X527207Y239178D02*
X527099D01*
Y239069D01*
X527207D01*
Y239178D01*
D02*
G37*
G36*
X526882Y238961D02*
X526773D01*
Y238852D01*
X526882D01*
Y238961D01*
D02*
G37*
G36*
X526773Y238635D02*
X526664D01*
Y238526D01*
X526773D01*
Y238635D01*
D02*
G37*
G36*
X526339Y238309D02*
X526230D01*
Y238201D01*
X526339D01*
Y238309D01*
D02*
G37*
G36*
X531441Y241891D02*
X531224D01*
Y241783D01*
X531007D01*
Y241674D01*
Y241566D01*
X530898D01*
Y241457D01*
X530790D01*
Y241349D01*
X530681D01*
Y241240D01*
X530572D01*
Y241132D01*
X530464D01*
Y241023D01*
X530355D01*
Y240915D01*
X530247D01*
Y240806D01*
X530138D01*
Y240697D01*
X530030D01*
Y240589D01*
X529812D01*
Y240480D01*
X529704D01*
Y240372D01*
Y240263D01*
X529595D01*
Y240155D01*
X529487D01*
Y240046D01*
X529378D01*
Y239937D01*
X529270D01*
Y239829D01*
X529161D01*
Y239720D01*
X528944D01*
Y239612D01*
Y239503D01*
X528727D01*
Y239395D01*
X528618D01*
Y239286D01*
X528510D01*
Y239178D01*
X528401D01*
Y239069D01*
X528293D01*
Y238961D01*
X528184D01*
Y238852D01*
X528076D01*
Y238743D01*
X527967D01*
Y238635D01*
X527859D01*
Y238526D01*
X527641D01*
Y238418D01*
Y238309D01*
X527533D01*
Y238201D01*
X527424D01*
Y238092D01*
X527316D01*
Y237984D01*
X527099D01*
Y237875D01*
Y237766D01*
X526882D01*
Y237658D01*
X526773D01*
Y237549D01*
X526556D01*
Y237441D01*
Y237332D01*
X526447D01*
Y237224D01*
Y237115D01*
X526882D01*
Y237224D01*
X527967D01*
Y237332D01*
X528944D01*
Y237441D01*
X529053D01*
Y237332D01*
X529161D01*
Y237441D01*
X530138D01*
Y237549D01*
X531224D01*
Y237658D01*
X532201D01*
Y237766D01*
X533069D01*
Y237875D01*
X533178D01*
Y237766D01*
X533286D01*
Y237875D01*
X534263D01*
Y237984D01*
X534589D01*
Y238092D01*
Y238201D01*
Y238309D01*
X534697D01*
Y238418D01*
Y238526D01*
Y238635D01*
X534589D01*
Y238743D01*
X534480D01*
Y238852D01*
X534372D01*
Y238961D01*
X534263D01*
Y239069D01*
X534155D01*
Y239178D01*
X534046D01*
Y239286D01*
X533938D01*
Y239395D01*
X533829D01*
Y239503D01*
X533720D01*
Y239612D01*
X533612D01*
Y239720D01*
X533503D01*
Y239829D01*
X533395D01*
Y239937D01*
X533286D01*
Y240046D01*
X533178D01*
Y240155D01*
X533069D01*
Y240263D01*
X532961D01*
Y240372D01*
X532852D01*
Y240480D01*
X532743D01*
Y240589D01*
X532635D01*
Y240697D01*
X532526D01*
Y240806D01*
X532418D01*
Y240915D01*
X532309D01*
Y241023D01*
X532201D01*
Y241132D01*
X532092D01*
Y241240D01*
X531984D01*
Y241349D01*
X531875D01*
Y241457D01*
X531766D01*
Y241566D01*
X531658D01*
Y241674D01*
X531549D01*
Y241783D01*
X531441D01*
Y241891D01*
D02*
G37*
G36*
X526013Y237658D02*
X525905D01*
Y237549D01*
X526013D01*
Y237658D01*
D02*
G37*
G36*
X525688D02*
X525579D01*
Y237549D01*
X525688D01*
Y237658D01*
D02*
G37*
G36*
X525362Y237224D02*
X525253D01*
Y237115D01*
X525362D01*
Y237224D01*
D02*
G37*
G36*
X524928Y236355D02*
X524819D01*
Y236247D01*
X524928D01*
Y236355D01*
D02*
G37*
G36*
X523734Y235487D02*
X523625D01*
Y235378D01*
X523734D01*
Y235487D01*
D02*
G37*
G36*
X523408D02*
X523299D01*
Y235378D01*
X523408D01*
Y235487D01*
D02*
G37*
G36*
X523082Y234836D02*
X522974D01*
Y234727D01*
X523082D01*
Y234836D01*
D02*
G37*
G36*
X522648Y234510D02*
X522540D01*
Y234401D01*
X522648D01*
Y234510D01*
D02*
G37*
G36*
X522431Y234184D02*
X522322D01*
Y234076D01*
X522431D01*
Y234184D01*
D02*
G37*
G36*
X549461Y236138D02*
X548918D01*
Y236030D01*
X548809D01*
Y236138D01*
X548701D01*
Y236030D01*
X548592D01*
Y236138D01*
X548484D01*
Y236030D01*
X547832D01*
Y235921D01*
X547724D01*
Y235812D01*
X547507D01*
Y235921D01*
X547615D01*
Y236030D01*
X546964D01*
Y235921D01*
X545878D01*
Y235812D01*
X545770D01*
Y235921D01*
X545661D01*
Y235812D01*
X544901D01*
Y235704D01*
X544793D01*
Y235812D01*
X544684D01*
Y235704D01*
X543816D01*
Y235595D01*
X542622D01*
Y235487D01*
X541645D01*
Y235378D01*
X540559D01*
Y235270D01*
X539582D01*
Y235161D01*
X539474D01*
Y235053D01*
Y234944D01*
Y234836D01*
Y234727D01*
X539365D01*
Y234618D01*
X539474D01*
Y234510D01*
Y234401D01*
X539582D01*
Y234293D01*
X539691D01*
Y234184D01*
X539799D01*
Y234076D01*
X539908D01*
Y233967D01*
X540016D01*
Y233859D01*
X540234D01*
Y233750D01*
Y233641D01*
X540342D01*
Y233533D01*
X540559D01*
Y233424D01*
X540668D01*
Y233316D01*
X540776D01*
Y233207D01*
X540885D01*
Y233099D01*
Y232990D01*
X541102D01*
Y232882D01*
X541211D01*
Y232773D01*
Y232664D01*
X541428D01*
Y232556D01*
X541536D01*
Y232447D01*
X541645D01*
Y232339D01*
X541753D01*
Y232230D01*
X541862D01*
Y232122D01*
X541970D01*
Y232013D01*
X542079D01*
Y231905D01*
X542188D01*
Y231796D01*
X542296D01*
Y231687D01*
X542405D01*
Y231579D01*
X542513D01*
Y231470D01*
X542622D01*
Y231362D01*
X542839D01*
Y231470D01*
X542947D01*
Y231579D01*
X543056D01*
Y231687D01*
X543164D01*
Y231796D01*
X543382D01*
Y231687D01*
X543273D01*
Y231579D01*
X543164D01*
Y231470D01*
X543056D01*
Y231362D01*
X542947D01*
Y231253D01*
X542839D01*
Y231145D01*
X542730D01*
Y231036D01*
X542622D01*
Y230928D01*
X542513D01*
Y230819D01*
X542405D01*
Y230711D01*
X542296D01*
Y230602D01*
X542188D01*
Y230493D01*
X542079D01*
Y230385D01*
X541970D01*
Y230276D01*
X541862D01*
Y230168D01*
X541753D01*
Y230276D01*
Y230385D01*
X541862D01*
Y230493D01*
X541970D01*
Y230602D01*
X542079D01*
Y230711D01*
X542188D01*
Y230819D01*
X542296D01*
Y230928D01*
X542405D01*
Y231036D01*
Y231145D01*
X542296D01*
Y231253D01*
X542188D01*
Y231362D01*
X542079D01*
Y231470D01*
X541970D01*
Y231579D01*
X541862D01*
Y231687D01*
X541753D01*
Y231796D01*
X541645D01*
Y231905D01*
X541536D01*
Y232013D01*
X541428D01*
Y232122D01*
X541319D01*
Y232230D01*
X541211D01*
Y232339D01*
X541102D01*
Y232447D01*
X540993D01*
Y232556D01*
X540885D01*
Y232664D01*
X540776D01*
Y232773D01*
X540668D01*
Y232882D01*
X540559D01*
Y232990D01*
X540451D01*
Y233099D01*
X540342D01*
Y233207D01*
X540234D01*
Y233316D01*
X540125D01*
Y233424D01*
X540016D01*
Y233533D01*
X539908D01*
Y233641D01*
X539799D01*
Y233750D01*
X539691D01*
Y233859D01*
X539582D01*
Y233967D01*
X539474D01*
Y234076D01*
X539365D01*
Y234184D01*
X539257D01*
Y234293D01*
X538714D01*
Y234184D01*
X538605D01*
Y234076D01*
X538497D01*
Y233967D01*
Y233859D01*
Y233750D01*
Y233641D01*
Y233533D01*
Y233424D01*
Y233316D01*
Y233207D01*
X538388D01*
Y233099D01*
Y232990D01*
Y232882D01*
Y232773D01*
Y232664D01*
Y232556D01*
Y232447D01*
Y232339D01*
X538280D01*
Y232230D01*
Y232122D01*
Y232013D01*
Y231905D01*
Y231796D01*
Y231687D01*
Y231579D01*
Y231470D01*
X538171D01*
Y231362D01*
Y231253D01*
Y231145D01*
Y231036D01*
Y230928D01*
Y230819D01*
Y230711D01*
X538062D01*
Y230602D01*
Y230493D01*
Y230385D01*
Y230276D01*
Y230168D01*
Y230059D01*
Y229951D01*
X537954D01*
Y229842D01*
X538062D01*
Y229734D01*
X537954D01*
Y229625D01*
Y229516D01*
Y229408D01*
Y229299D01*
Y229191D01*
Y229082D01*
Y228974D01*
X537845D01*
Y228865D01*
Y228757D01*
Y228648D01*
Y228539D01*
Y228431D01*
Y228322D01*
Y228214D01*
X537737D01*
Y228105D01*
Y227997D01*
Y227888D01*
Y227780D01*
Y227671D01*
Y227562D01*
Y227454D01*
Y227345D01*
X537628D01*
Y227237D01*
Y227128D01*
Y227020D01*
Y226911D01*
Y226803D01*
Y226694D01*
Y226586D01*
X537520D01*
Y226477D01*
X537628D01*
Y226368D01*
X537520D01*
Y226260D01*
Y226151D01*
Y226043D01*
Y225934D01*
X537628D01*
Y226043D01*
X537737D01*
Y225934D01*
Y225826D01*
X537628D01*
Y225717D01*
X537520D01*
Y225609D01*
Y225500D01*
Y225391D01*
Y225283D01*
Y225174D01*
X537411D01*
Y225066D01*
X537520D01*
Y224957D01*
X537411D01*
Y224849D01*
Y224740D01*
Y224632D01*
Y224523D01*
Y224414D01*
Y224306D01*
X537303D01*
Y224197D01*
Y224089D01*
Y223980D01*
X537411D01*
Y224089D01*
X537520D01*
Y224197D01*
X537628D01*
Y224306D01*
X537737D01*
Y224414D01*
X537845D01*
Y224523D01*
X538062D01*
Y224632D01*
Y224740D01*
X538280D01*
Y224849D01*
X538388D01*
Y224957D01*
X538497D01*
Y225066D01*
X538605D01*
Y225174D01*
X538714D01*
Y225283D01*
X538822D01*
Y225391D01*
X538931D01*
Y225500D01*
X539040D01*
Y225609D01*
X539257D01*
Y225717D01*
Y225826D01*
X539474D01*
Y225934D01*
X539582D01*
Y226043D01*
X539691D01*
Y226151D01*
X539799D01*
Y226260D01*
X539908D01*
Y226368D01*
X540016D01*
Y226477D01*
X540125D01*
Y226586D01*
X540234D01*
Y226694D01*
X540342D01*
Y226803D01*
X540451D01*
Y226911D01*
X540559D01*
Y227020D01*
X540668D01*
Y227128D01*
X540776D01*
Y227237D01*
X540885D01*
Y227345D01*
X540993D01*
Y227454D01*
X541102D01*
Y227562D01*
X541211D01*
Y227671D01*
X541319D01*
Y227780D01*
X541536D01*
Y227888D01*
X541645D01*
Y227997D01*
Y228105D01*
X541862D01*
Y228214D01*
X541970D01*
Y228322D01*
X542079D01*
Y228431D01*
X542188D01*
Y228539D01*
X542296D01*
Y228648D01*
X542405D01*
Y228757D01*
X542513D01*
Y228865D01*
X542622D01*
Y228974D01*
X542730D01*
Y229082D01*
X542839D01*
Y229191D01*
X542947D01*
Y229299D01*
X543056D01*
Y229408D01*
X543164D01*
Y229516D01*
X543273D01*
Y229625D01*
X543382D01*
Y229734D01*
X543490D01*
Y229842D01*
X543599D01*
Y229951D01*
X543707D01*
Y230059D01*
X543816D01*
Y230168D01*
X543924D01*
Y230276D01*
X544033D01*
Y230385D01*
X544141D01*
Y230493D01*
X544250D01*
Y230602D01*
X544359D01*
Y230711D01*
X544467D01*
Y230819D01*
X544576D01*
Y230928D01*
X544684D01*
Y231036D01*
X544793D01*
Y231145D01*
X544901D01*
Y231253D01*
X545010D01*
Y231362D01*
X545118D01*
Y231470D01*
X545227D01*
Y231579D01*
X545335D01*
Y231687D01*
X545444D01*
Y231796D01*
Y231905D01*
X545661D01*
Y232013D01*
Y232122D01*
X545878D01*
Y232230D01*
Y232339D01*
X545987D01*
Y232447D01*
X546204D01*
Y232556D01*
Y232664D01*
X546313D01*
Y232773D01*
X546421D01*
Y232882D01*
X546530D01*
Y232990D01*
X546638D01*
Y233099D01*
X546747D01*
Y233207D01*
X546855D01*
Y233316D01*
X546964D01*
Y233424D01*
X547072D01*
Y233533D01*
X547181D01*
Y233641D01*
X547290D01*
Y233750D01*
X547398D01*
Y233859D01*
X547507D01*
Y233967D01*
X547615D01*
Y234076D01*
X547724D01*
Y234184D01*
X547832D01*
Y234293D01*
X547941D01*
Y234401D01*
Y234510D01*
X548049D01*
Y234618D01*
X548158D01*
Y234727D01*
X548266D01*
Y234836D01*
X548375D01*
Y234944D01*
X548484D01*
Y235053D01*
X548592D01*
Y235161D01*
X548701D01*
Y235270D01*
X548809D01*
Y235378D01*
X548918D01*
Y235487D01*
X549026D01*
Y235595D01*
X549135D01*
Y235704D01*
Y235812D01*
X549243D01*
Y235921D01*
X549352D01*
Y236030D01*
X549461D01*
Y236138D01*
D02*
G37*
G36*
X552174Y239069D02*
X551957D01*
Y238961D01*
Y238852D01*
X552066D01*
Y238743D01*
X552174D01*
Y238635D01*
Y238526D01*
X552283D01*
Y238418D01*
Y238309D01*
X552391D01*
Y238201D01*
Y238092D01*
X552500D01*
Y237984D01*
Y237875D01*
Y237766D01*
X552609D01*
Y237658D01*
Y237549D01*
X552717D01*
Y237441D01*
Y237332D01*
Y237224D01*
X552826D01*
Y237115D01*
Y237007D01*
X552934D01*
Y236898D01*
Y236789D01*
Y236681D01*
X553043D01*
Y236572D01*
Y236464D01*
Y236355D01*
X553151D01*
Y236247D01*
Y236138D01*
Y236030D01*
X553260D01*
Y235921D01*
Y235812D01*
Y235704D01*
Y235595D01*
X553368D01*
Y235487D01*
Y235378D01*
Y235270D01*
Y235161D01*
Y235053D01*
X553477D01*
Y234944D01*
Y234836D01*
Y234727D01*
Y234618D01*
Y234510D01*
Y234401D01*
X553585D01*
Y234293D01*
Y234184D01*
Y234076D01*
Y233967D01*
Y233859D01*
Y233750D01*
Y233641D01*
Y233533D01*
Y233424D01*
Y233316D01*
Y233207D01*
Y233099D01*
Y232990D01*
Y232882D01*
Y232773D01*
Y232664D01*
Y232556D01*
Y232447D01*
Y232339D01*
Y232230D01*
Y232122D01*
Y232013D01*
Y231905D01*
Y231796D01*
Y231687D01*
Y231579D01*
Y231470D01*
Y231362D01*
Y231253D01*
X553477D01*
Y231145D01*
Y231036D01*
Y230928D01*
Y230819D01*
Y230711D01*
Y230602D01*
Y230493D01*
Y230385D01*
X553368D01*
Y230276D01*
Y230168D01*
Y230059D01*
Y229951D01*
X553260D01*
Y229842D01*
Y229734D01*
Y229625D01*
Y229516D01*
X553151D01*
Y229408D01*
Y229299D01*
Y229191D01*
Y229082D01*
X553043D01*
Y228974D01*
Y228865D01*
Y228757D01*
X552934D01*
Y228648D01*
Y228539D01*
Y228431D01*
X552826D01*
Y228322D01*
Y228214D01*
Y228105D01*
X552717D01*
Y227997D01*
Y227888D01*
X552609D01*
Y227780D01*
Y227671D01*
X552500D01*
Y227562D01*
Y227454D01*
Y227345D01*
X552391D01*
Y227237D01*
Y227128D01*
X552283D01*
Y227020D01*
Y226911D01*
X552174D01*
Y226803D01*
X552066D01*
Y226694D01*
Y226586D01*
X551957D01*
Y226477D01*
Y226368D01*
X551849D01*
Y226260D01*
X551740D01*
Y226151D01*
Y226043D01*
X551632D01*
Y225934D01*
Y225826D01*
X551523D01*
Y225717D01*
X551414D01*
Y225609D01*
Y225500D01*
X551306D01*
Y225391D01*
X551197D01*
Y225283D01*
X551089D01*
Y225174D01*
Y225066D01*
X550980D01*
Y224957D01*
X550872D01*
Y224849D01*
X550763D01*
Y224740D01*
Y224632D01*
X550655D01*
Y224523D01*
X550546D01*
Y224414D01*
X550437D01*
Y224306D01*
X550329D01*
Y224197D01*
X550220D01*
Y224089D01*
X550112D01*
Y223980D01*
X550003D01*
Y223872D01*
X549895D01*
Y223763D01*
X549786D01*
Y223655D01*
X549678D01*
Y223546D01*
X549569D01*
Y223438D01*
X549461D01*
Y223329D01*
X549352D01*
Y223220D01*
X549243D01*
Y223112D01*
X549135D01*
Y223003D01*
X548918D01*
Y222895D01*
X548809D01*
Y222786D01*
X548701D01*
Y222678D01*
X548484D01*
Y222569D01*
X548375D01*
Y222461D01*
X548266D01*
Y222352D01*
X548049D01*
Y222243D01*
X547941D01*
Y222135D01*
X547724D01*
Y222026D01*
X547615D01*
Y221918D01*
X547398D01*
Y221809D01*
X547181D01*
Y221701D01*
X546964D01*
Y221592D01*
X546747D01*
Y221484D01*
X546530D01*
Y221375D01*
X546313D01*
Y221266D01*
X546095D01*
Y221158D01*
X545878D01*
Y221049D01*
X545553D01*
Y220941D01*
X545227D01*
Y220832D01*
X544901D01*
Y220724D01*
X544576D01*
Y220615D01*
X544141D01*
Y220507D01*
X543707D01*
Y220398D01*
X543273D01*
Y220289D01*
X542405D01*
Y220181D01*
X539582D01*
Y220289D01*
X538931D01*
Y220398D01*
X538280D01*
Y220507D01*
X537845D01*
Y220615D01*
X537520D01*
Y220724D01*
X537085D01*
Y220832D01*
X536760D01*
Y220941D01*
X536543D01*
Y221049D01*
X536217D01*
Y221158D01*
X536000D01*
Y221266D01*
X535674D01*
Y221375D01*
X535457D01*
Y221484D01*
X535240D01*
Y221592D01*
X535023D01*
Y221701D01*
X534806D01*
Y221592D01*
Y221484D01*
X534914D01*
Y221375D01*
X535023D01*
Y221266D01*
X535132D01*
Y221158D01*
X535240D01*
Y221049D01*
X535349D01*
Y220941D01*
X535457D01*
Y220832D01*
X535566D01*
Y220724D01*
X535674D01*
Y220615D01*
X535783D01*
Y220507D01*
X535891D01*
Y220398D01*
X536000D01*
Y220289D01*
X536109D01*
Y220181D01*
X536217D01*
Y220072D01*
X536326D01*
Y219964D01*
X536434D01*
Y219855D01*
X536543D01*
Y219747D01*
X536651D01*
Y219638D01*
X536760D01*
Y219530D01*
X536977D01*
Y219421D01*
X537085D01*
Y219313D01*
X537194D01*
Y219204D01*
X537411D01*
Y219095D01*
X537520D01*
Y218987D01*
X537737D01*
Y218878D01*
X537845D01*
Y218770D01*
X538062D01*
Y218661D01*
X538171D01*
Y218553D01*
X538388D01*
Y218444D01*
X538605D01*
Y218336D01*
X538714D01*
Y218227D01*
X538931D01*
Y218118D01*
X539148D01*
Y218010D01*
X539365D01*
Y217901D01*
X539691D01*
Y217793D01*
X539908D01*
Y217684D01*
X540234D01*
Y217576D01*
X540451D01*
Y217467D01*
X540776D01*
Y217359D01*
X541102D01*
Y217250D01*
X541645D01*
Y217141D01*
X542079D01*
Y217033D01*
X542622D01*
Y216924D01*
X543599D01*
Y216816D01*
X545553D01*
Y216924D01*
X546530D01*
Y217033D01*
X547181D01*
Y217141D01*
X547615D01*
Y217250D01*
X547941D01*
Y217359D01*
X548375D01*
Y217467D01*
X548701D01*
Y217576D01*
X549026D01*
Y217684D01*
X549243D01*
Y217793D01*
X549569D01*
Y217901D01*
X549786D01*
Y218010D01*
X550003D01*
Y218118D01*
X550220D01*
Y218227D01*
X550437D01*
Y218336D01*
X550655D01*
Y218444D01*
X550763D01*
Y218553D01*
X550980D01*
Y218661D01*
X551197D01*
Y218770D01*
X551306D01*
Y218878D01*
X551523D01*
Y218987D01*
X551632D01*
Y219095D01*
X551849D01*
Y219204D01*
X551957D01*
Y219313D01*
X552066D01*
Y219421D01*
X552283D01*
Y219530D01*
X552391D01*
Y219638D01*
X552500D01*
Y219747D01*
X552609D01*
Y219855D01*
X552717D01*
Y219964D01*
X552934D01*
Y220072D01*
Y220181D01*
X553151D01*
Y220289D01*
X553260D01*
Y220398D01*
X553368D01*
Y220507D01*
X553477D01*
Y220615D01*
X553585D01*
Y220724D01*
Y220832D01*
X553694D01*
Y220941D01*
X553803D01*
Y221049D01*
X553911D01*
Y221158D01*
X554020D01*
Y221266D01*
X554128D01*
Y221375D01*
X554237D01*
Y221484D01*
X554345D01*
Y221592D01*
X554454D01*
Y221701D01*
Y221809D01*
X554563D01*
Y221918D01*
X554671D01*
Y222026D01*
X554780D01*
Y222135D01*
Y222243D01*
X554888D01*
Y222352D01*
X554997D01*
Y222461D01*
Y222569D01*
X555105D01*
Y222678D01*
X555214D01*
Y222786D01*
Y222895D01*
X555322D01*
Y223003D01*
Y223112D01*
X555431D01*
Y223220D01*
Y223329D01*
X555540D01*
Y223438D01*
X555648D01*
Y223546D01*
Y223655D01*
X555757D01*
Y223763D01*
Y223872D01*
X555865D01*
Y223980D01*
Y224089D01*
X555974D01*
Y224197D01*
Y224306D01*
Y224414D01*
X556082D01*
Y224523D01*
Y224632D01*
X556191D01*
Y224740D01*
Y224849D01*
Y224957D01*
X556299D01*
Y225066D01*
Y225174D01*
Y225283D01*
X556408D01*
Y225391D01*
Y225500D01*
Y225609D01*
X556516D01*
Y225717D01*
Y225826D01*
Y225934D01*
X556625D01*
Y226043D01*
Y226151D01*
Y226260D01*
Y226368D01*
X556734D01*
Y226477D01*
Y226586D01*
Y226694D01*
Y226803D01*
Y226911D01*
X556842D01*
Y227020D01*
Y227128D01*
Y227237D01*
Y227345D01*
Y227454D01*
Y227562D01*
X556951D01*
Y227671D01*
Y227780D01*
Y227888D01*
Y227997D01*
Y228105D01*
Y228214D01*
Y228322D01*
Y228431D01*
Y228539D01*
Y228648D01*
Y228757D01*
Y228865D01*
Y228974D01*
Y229082D01*
Y229191D01*
Y229299D01*
Y229408D01*
Y229516D01*
Y229625D01*
Y229734D01*
Y229842D01*
Y229951D01*
Y230059D01*
Y230168D01*
Y230276D01*
Y230385D01*
Y230493D01*
Y230602D01*
Y230711D01*
X556842D01*
Y230819D01*
Y230928D01*
Y231036D01*
Y231145D01*
Y231253D01*
Y231362D01*
Y231470D01*
X556734D01*
Y231579D01*
Y231687D01*
Y231796D01*
Y231905D01*
Y232013D01*
X556625D01*
Y232122D01*
Y232230D01*
Y232339D01*
Y232447D01*
X556516D01*
Y232556D01*
Y232664D01*
Y232773D01*
X556408D01*
Y232882D01*
Y232990D01*
Y233099D01*
X556299D01*
Y233207D01*
Y233316D01*
Y233424D01*
X556191D01*
Y233533D01*
Y233641D01*
Y233750D01*
X556082D01*
Y233859D01*
Y233967D01*
X555974D01*
Y234076D01*
Y234184D01*
X555865D01*
Y234293D01*
Y234401D01*
Y234510D01*
X555757D01*
Y234618D01*
Y234727D01*
X555648D01*
Y234836D01*
Y234944D01*
X555540D01*
Y235053D01*
X555431D01*
Y235161D01*
Y235270D01*
X555322D01*
Y235378D01*
Y235487D01*
X555214D01*
Y235595D01*
X555105D01*
Y235704D01*
Y235812D01*
X554997D01*
Y235921D01*
Y236030D01*
X554888D01*
Y236138D01*
X554780D01*
Y236247D01*
Y236355D01*
X554671D01*
Y236464D01*
X554563D01*
Y236572D01*
X554454D01*
Y236681D01*
Y236789D01*
X554345D01*
Y236898D01*
X554237D01*
Y237007D01*
X554128D01*
Y237115D01*
X554020D01*
Y237224D01*
Y237332D01*
X553911D01*
Y237441D01*
X553803D01*
Y237549D01*
X553694D01*
Y237658D01*
X553585D01*
Y237766D01*
X553477D01*
Y237875D01*
X553368D01*
Y237984D01*
X553260D01*
Y238092D01*
X553151D01*
Y238201D01*
X553043D01*
Y238309D01*
X552934D01*
Y238418D01*
X552717D01*
Y238526D01*
X552609D01*
Y238635D01*
X552500D01*
Y238743D01*
X552391D01*
Y238852D01*
X552283D01*
Y238961D01*
X552174D01*
Y239069D01*
D02*
G37*
%LPD*%
G36*
X547507Y235704D02*
Y235595D01*
X547290D01*
Y235704D01*
X547398D01*
Y235812D01*
X547507D01*
Y235704D01*
D02*
G37*
G36*
X546964Y235161D02*
X546855D01*
Y235053D01*
X546747D01*
Y234944D01*
X546638D01*
Y234836D01*
X546530D01*
Y234727D01*
X546421D01*
Y234618D01*
X546313D01*
Y234510D01*
X546204D01*
Y234401D01*
X546095D01*
Y234293D01*
X545987D01*
Y234184D01*
X545770D01*
Y234293D01*
X545878D01*
Y234401D01*
X545987D01*
Y234510D01*
X546095D01*
Y234618D01*
X546204D01*
Y234727D01*
X546313D01*
Y234836D01*
X546421D01*
Y234944D01*
X546530D01*
Y235053D01*
X546638D01*
Y235161D01*
X546747D01*
Y235270D01*
X546964D01*
Y235161D01*
D02*
G37*
G36*
X544576Y232882D02*
X544467D01*
Y232773D01*
X544359D01*
Y232882D01*
Y232990D01*
X544576D01*
Y232882D01*
D02*
G37*
G36*
X544359Y232664D02*
X544250D01*
Y232556D01*
X544141D01*
Y232664D01*
Y232773D01*
X544359D01*
Y232664D01*
D02*
G37*
G36*
X544033Y232339D02*
X543924D01*
Y232230D01*
X543816D01*
Y232122D01*
X543707D01*
Y232013D01*
X543599D01*
Y231905D01*
X543490D01*
Y231796D01*
X543382D01*
Y231905D01*
Y232013D01*
X543490D01*
Y232122D01*
X543599D01*
Y232230D01*
X543707D01*
Y232339D01*
X543816D01*
Y232447D01*
X544033D01*
Y232339D01*
D02*
G37*
G36*
X541753Y230059D02*
X541645D01*
Y229951D01*
X541536D01*
Y230059D01*
Y230168D01*
X541753D01*
Y230059D01*
D02*
G37*
G36*
X541536Y229842D02*
X541428D01*
Y229734D01*
X541319D01*
Y229842D01*
Y229951D01*
X541536D01*
Y229842D01*
D02*
G37*
G36*
X541211Y229516D02*
X541102D01*
Y229408D01*
X540993D01*
Y229516D01*
Y229625D01*
X541211D01*
Y229516D01*
D02*
G37*
G36*
X539582Y227888D02*
Y227780D01*
X539365D01*
Y227888D01*
X539474D01*
Y227997D01*
X539582D01*
Y227888D01*
D02*
G37*
G36*
X539148Y227454D02*
Y227345D01*
X539040D01*
Y227237D01*
X538931D01*
Y227128D01*
X538822D01*
Y227020D01*
X538714D01*
Y226911D01*
X538605D01*
Y226803D01*
X538497D01*
Y226694D01*
X538388D01*
Y226803D01*
Y226911D01*
X538497D01*
Y227020D01*
X538605D01*
Y227128D01*
X538714D01*
Y227237D01*
X538822D01*
Y227345D01*
X538931D01*
Y227454D01*
X539040D01*
Y227562D01*
X539148D01*
Y227454D01*
D02*
G37*
D10*
X581350Y305000D02*
G03*
X581350Y305000I-196850J0D01*
G01*
X556501Y292000D02*
X550503D01*
X552502Y293999D01*
X550503Y295999D01*
X556501D01*
Y298998D02*
Y300997D01*
X555501Y301997D01*
X553502D01*
X552502Y300997D01*
Y298998D01*
X553502Y297998D01*
X555501D01*
X556501Y298998D01*
X550503Y307995D02*
X556501D01*
Y304996D01*
X555501Y303996D01*
X553502D01*
X552502Y304996D01*
Y307995D01*
X556501Y312993D02*
Y310994D01*
X555501Y309994D01*
X553502D01*
X552502Y310994D01*
Y312993D01*
X553502Y313993D01*
X554501D01*
Y309994D01*
X556501Y315992D02*
Y317992D01*
Y316992D01*
X550503D01*
Y315992D01*
Y326989D02*
X555501D01*
X556501Y327988D01*
Y329988D01*
X555501Y330987D01*
X550503D01*
X552502Y332987D02*
X555501D01*
X556501Y333986D01*
Y336985D01*
X557500D01*
X558500Y335986D01*
Y334986D01*
X556501Y336985D02*
X552502D01*
X550503Y342984D02*
X556501D01*
Y339984D01*
X555501Y338985D01*
X553502D01*
X552502Y339984D01*
Y342984D01*
Y344983D02*
X555501D01*
X556501Y345983D01*
Y348982D01*
X552502D01*
X550503Y356979D02*
X554501D01*
X556501Y358978D01*
X554501Y360978D01*
X550503D01*
X556501Y362977D02*
Y364976D01*
Y363977D01*
X550503D01*
X551502Y362977D01*
X556501Y367975D02*
X555501D01*
Y368975D01*
X556501D01*
Y367975D01*
Y372974D02*
Y374973D01*
Y373973D01*
X550503D01*
X551502Y372974D01*
D11*
X489500Y455500D02*
X490500D01*
X480500D02*
X489500D01*
X469500D02*
X479500D01*
X394000Y203710D02*
X464888Y274598D01*
X372517Y118343D02*
Y125172D01*
Y118343D02*
X374861Y116000D01*
X391000D01*
X400000Y125000D01*
X371689Y126000D02*
X372517Y125172D01*
X371689Y126000D02*
Y133311D01*
X400000Y138500D02*
X410000D01*
X382500Y153500D02*
X397135Y138865D01*
X400000Y125000D02*
X410000D01*
X275000Y181500D02*
X298500D01*
X318000Y176000D02*
X347499Y146501D01*
X298500Y181500D02*
X304000Y176000D01*
X318000D01*
X347499Y146501D02*
X354501D01*
X356500Y148500D01*
X371689Y133311D01*
X356500Y148500D02*
Y156500D01*
X237500Y388500D02*
Y406500D01*
X292000Y461000D02*
X316500D01*
X237500Y406500D02*
X292000Y461000D01*
X339500Y484000D02*
X441000D01*
X316500Y461000D02*
X339500Y484000D01*
X340000Y436000D02*
X380000Y476000D01*
X437157D01*
X439500Y461843D02*
Y473657D01*
X437157Y476000D02*
X439500Y473657D01*
X352000Y351500D02*
X352500D01*
X371000Y333000D01*
X394500D01*
X320321Y187179D02*
X349500Y158000D01*
X372500Y153250D02*
Y153500D01*
X382500D02*
X394000Y165000D01*
Y177000D01*
X372500Y153500D02*
X382500D01*
X372000Y179000D02*
X382000D01*
X356500Y176500D02*
X368984D01*
X371484Y179000D01*
X372000D01*
X356500Y166500D02*
X383500D01*
X394000Y177000D01*
Y203710D01*
X479500Y441000D02*
X489500D01*
X449657Y475343D02*
X469500Y455500D01*
X469343Y436000D02*
X469698D01*
X474334Y440635D01*
X479135D01*
X479500Y441000D01*
X265315Y161500D02*
X275000D01*
X245000Y181815D02*
X265315Y161500D01*
X228157Y198658D02*
X245000Y181815D01*
X228157Y198658D02*
Y222459D01*
Y291846D01*
X224658Y326343D02*
X238157Y312843D01*
X210500Y326343D02*
X224658D01*
X238157Y294846D02*
Y312843D01*
X238157Y222459D02*
Y293346D01*
X210500Y326343D02*
Y336157D01*
X228157Y294846D02*
X229657Y293346D01*
X219158Y306658D02*
X228157Y297658D01*
Y294846D02*
Y297658D01*
X210500Y306658D02*
X219158D01*
X238157Y294846D02*
X239657Y293346D01*
Y293602D01*
X238413Y294846D02*
X239657Y293602D01*
X210500Y336157D02*
X226842Y352500D01*
X202000Y315158D02*
X210500Y306658D01*
X202000Y315158D02*
Y347342D01*
X207157Y352500D01*
X224658Y370000D01*
X334250Y402750D02*
X334500Y403000D01*
X321500Y402500D02*
X321750Y402750D01*
X334250D01*
X321500Y392500D02*
X321750Y392750D01*
X334250D01*
X334500Y393000D01*
X321750Y382750D02*
X334250D01*
X321500Y382500D02*
X321750Y382750D01*
X334250D02*
X334500Y383000D01*
X321750Y372750D02*
X334250D01*
X334500Y373000D01*
X321500Y372500D02*
X321750Y372750D01*
X298157Y222459D02*
Y343657D01*
X307500Y353000D01*
X290500Y281500D02*
Y346000D01*
X287000Y223616D02*
Y278000D01*
X290500Y281500D01*
X287000Y223616D02*
X288157Y222459D01*
X290500Y346000D02*
X297500Y353000D01*
X278157Y222459D02*
Y280157D01*
X283000Y285000D01*
Y347984D01*
X268157Y280343D02*
X277314Y289500D01*
Y352814D01*
X268157Y222459D02*
Y280343D01*
X287500Y352484D02*
Y353000D01*
X283000Y347984D02*
X287500Y352484D01*
X277314Y352814D02*
X277500Y353000D01*
X267500Y370000D02*
X298250D01*
X305250Y363000D01*
X334500D01*
X309000Y339500D02*
X322500Y353000D01*
X334500D01*
X309000Y210086D02*
Y339500D01*
X301414Y202500D02*
X309000Y210086D01*
X395635Y334135D02*
X411635D01*
X412000Y334500D01*
X394500Y333000D02*
X395635Y334135D01*
X394500Y343000D02*
X395635Y344135D01*
X411635D02*
X412000Y344500D01*
X395635Y344135D02*
X411635D01*
X394500Y353000D02*
X395635Y354135D01*
X411635D02*
X412000Y354500D01*
X395635Y354135D02*
X411635D01*
X394500Y363000D02*
X395250Y363750D01*
X411250D02*
X412000Y364500D01*
X395250Y363750D02*
X411250D01*
X456646Y284598D02*
Y285841D01*
X429000Y310500D02*
X446902Y292598D01*
X449888D02*
X456646Y285841D01*
X407500Y310500D02*
X429000D01*
X443402Y287598D02*
X444888D01*
X426500Y304500D02*
X443402Y287598D01*
X446902Y292598D02*
X449888D01*
X456646Y284598D02*
X460146Y281098D01*
X446646Y284598D02*
Y285841D01*
X444888Y287598D02*
X446646Y285841D01*
Y284598D02*
X450146Y281098D01*
X412000Y304500D02*
X426500D01*
X394500Y303000D02*
X395493Y303993D01*
X400993D01*
X407500Y310500D01*
X333000Y331500D02*
X334500Y333000D01*
X331429Y331500D02*
X333000D01*
X326429Y326500D02*
X326429D01*
X331429Y331500D01*
X317500Y317571D02*
X326429Y326500D01*
X317500Y266000D02*
Y317571D01*
X322500Y289000D02*
Y315500D01*
X328500Y321500D01*
X333000D01*
X317500Y266000D02*
X339000Y244500D01*
X394500Y393000D02*
X395993Y391507D01*
X412344Y379656D02*
X450516D01*
X395993Y391507D02*
X400493D01*
X412344Y379656D01*
X394500Y403000D02*
X402000D01*
X417470Y387530D01*
X448986D01*
X431000Y457500D02*
X433000Y459500D01*
X437157D01*
X439500Y461843D01*
X381000Y431500D02*
Y443500D01*
X393257Y424243D02*
X394500Y423000D01*
X388257Y424243D02*
X393257D01*
X381000Y431500D02*
X388257Y424243D01*
X393757Y413743D02*
X394500Y413000D01*
X371500Y430000D02*
X387757Y413743D01*
X393757D01*
X371500Y430000D02*
Y453500D01*
X260000Y305000D02*
X269000Y314000D01*
X260000Y293689D02*
Y305000D01*
X259657Y293346D02*
X260000Y293689D01*
X269000Y314000D02*
Y368500D01*
X258000Y316000D02*
Y369500D01*
X249657Y307657D02*
X258000Y316000D01*
X257500Y370000D02*
X258000Y369500D01*
X249657Y293346D02*
Y307657D01*
X257500Y370000D02*
Y378000D01*
X248157Y291846D02*
X249657Y293346D01*
X267500Y370000D02*
X269000Y368500D01*
X333000Y321500D02*
X334500Y323000D01*
X322500Y289000D02*
X356500Y255000D01*
X417500Y410000D02*
Y423664D01*
X419843Y426007D02*
X429507D01*
X417500Y423664D02*
X419843Y426007D01*
X417500Y410000D02*
X432096Y395404D01*
X429507Y426007D02*
X431000Y427500D01*
X349500Y158000D02*
X355000D01*
X315000Y187657D02*
X315479Y187179D01*
X320321D01*
X355000Y158000D02*
X356500Y156500D01*
X325185Y152500D02*
X328685Y149000D01*
Y148815D02*
Y149000D01*
X351500Y126000D02*
X359878D01*
X328685Y148815D02*
X351500Y126000D01*
X227198Y352500D02*
X229198Y354500D01*
X238500D02*
X247007Y363007D01*
Y369507D02*
X247500Y370000D01*
X226842Y352500D02*
X227198D01*
X229198Y354500D02*
X238500D01*
X247007Y363007D02*
Y369507D01*
X382790Y192500D02*
X394000Y203710D01*
X372272Y192500D02*
X382790D01*
X371000Y192157D02*
X371252Y192409D01*
X372181D01*
X372272Y192500D01*
X344000Y176000D02*
X355000Y165000D01*
X356500Y200000D02*
Y204000D01*
X356343Y176657D02*
Y200000D01*
Y176657D02*
X356500Y176500D01*
X349843Y206500D02*
X356343Y200000D01*
X356500D01*
Y204000D02*
X364342Y211842D01*
X356500Y204000D02*
Y255000D01*
X464888Y274598D02*
X464888D01*
X466646Y276356D01*
X469904Y309650D02*
X470146Y309408D01*
X455016Y324538D02*
X469904Y309650D01*
X344000Y176000D02*
Y192657D01*
X466646Y276356D02*
Y276646D01*
X468646Y278646D02*
Y279598D01*
X466646Y276646D02*
X468646Y278646D01*
Y279598D02*
X470146Y281098D01*
X245000Y196000D02*
X250500Y190500D01*
X298158D02*
X315000Y207343D01*
X274007Y172493D02*
X275000Y171500D01*
X250500Y190500D02*
X298158D01*
X250500D02*
X268507Y172493D01*
X245000Y196000D02*
Y201500D01*
X268507Y172493D02*
X274007D01*
X238157Y208343D02*
X245000Y201500D01*
X275000Y171500D02*
X286500D01*
X469904Y281340D02*
X470146Y281098D01*
X469904Y281340D02*
Y309650D01*
X394500Y323000D02*
X397500Y320000D01*
X408658Y317843D02*
X420500D01*
X397500Y320000D02*
X406500D01*
X408658Y317843D01*
X329736Y206921D02*
X330157Y206500D01*
X315000Y207343D02*
X315421Y206921D01*
X329736D01*
X248157Y208843D02*
X254500Y202500D01*
X301414D01*
X248157Y208843D02*
Y222459D01*
X441000Y484000D02*
X449657Y475343D01*
Y436000D02*
Y475343D01*
X441157Y427500D02*
X449657Y436000D01*
X431000Y427500D02*
X441157D01*
X432096Y395404D02*
X450516D01*
X449942Y416600D02*
X469343Y436000D01*
X431000Y416600D02*
X449942D01*
X469343Y436000D02*
X470146Y435197D01*
Y309408D02*
Y435197D01*
X450516Y324538D02*
X455016D01*
X334500Y433000D02*
X337500Y436000D01*
X340000D01*
X430000Y466500D02*
X431000Y467500D01*
X371500Y453500D02*
X384500Y466500D01*
X430000D01*
Y448500D02*
X431000Y447500D01*
X386000Y448500D02*
X430000D01*
X381000Y443500D02*
X386000Y448500D01*
X394500Y433000D02*
X399000Y437500D01*
X431000D01*
X448986Y386000D02*
X450516Y387530D01*
X349000Y323000D02*
X390902Y281098D01*
X334500Y323000D02*
X349000D01*
X390902Y281098D02*
X440146D01*
X400500Y293000D02*
X412000Y304500D01*
X394500Y293000D02*
X400500D01*
X420500Y317843D02*
X443820D01*
X450516Y324538D01*
X434559Y284098D02*
X437146D01*
X420500Y298158D02*
X434559Y284098D01*
X437146D02*
X440146Y281098D01*
X430547Y240547D02*
Y241500D01*
X224658Y370000D02*
X237500D01*
X248157Y222459D02*
Y291846D01*
X258157Y222459D02*
Y291846D01*
X238157Y208343D02*
Y222459D01*
X270500Y373000D02*
Y376000D01*
X267500Y370000D02*
X270500Y373000D01*
Y376000D02*
X298000Y403500D01*
X257500Y378000D02*
X283000Y403500D01*
X375421Y241500D02*
X430547D01*
X355921Y303000D02*
X375421Y283500D01*
X237500Y388500D02*
X282500Y433500D01*
X237500Y370000D02*
Y388500D01*
X282500Y433500D02*
X283000D01*
X298000D01*
X286500Y171500D02*
X305500Y152500D01*
X334500Y303000D02*
X355921D01*
X330157Y206500D02*
X344000Y192657D01*
X342500Y244500D02*
X345500Y241500D01*
X339000Y244500D02*
X342500D01*
X364342Y211842D02*
X371000D01*
X375421Y241500D02*
Y283500D01*
D12*
X283000Y403500D02*
D03*
X298000Y433500D02*
D03*
Y403500D02*
D03*
X283000Y433500D02*
D03*
D13*
X349843Y206500D02*
D03*
X449657Y436000D02*
D03*
X207157Y352500D02*
D03*
D14*
X330157Y206500D02*
D03*
X469343Y436000D02*
D03*
X210500Y326343D02*
D03*
X420500Y317843D02*
D03*
X226842Y352500D02*
D03*
X315000Y207343D02*
D03*
X371000Y192157D02*
D03*
X245000Y201500D02*
D03*
D15*
X288157Y222459D02*
D03*
X278157D02*
D03*
X268157D02*
D03*
X258157D02*
D03*
X248157D02*
D03*
X238157D02*
D03*
X228157D02*
D03*
X298157D02*
D03*
X269500Y293500D02*
D03*
X259657Y293346D02*
D03*
X249657D02*
D03*
X239657D02*
D03*
X229657D02*
D03*
X470146Y281098D02*
D03*
X460146D02*
D03*
X450146D02*
D03*
X440146D02*
D03*
X394500Y333000D02*
D03*
X359878Y126000D02*
D03*
X371689D02*
D03*
X383500D02*
D03*
X394500Y403000D02*
D03*
Y433000D02*
D03*
Y423000D02*
D03*
Y393000D02*
D03*
Y383000D02*
D03*
Y353000D02*
D03*
Y323000D02*
D03*
Y313000D02*
D03*
Y303000D02*
D03*
Y413000D02*
D03*
Y373000D02*
D03*
Y293000D02*
D03*
X334500Y403000D02*
D03*
Y343000D02*
D03*
Y433000D02*
D03*
Y423000D02*
D03*
Y393000D02*
D03*
Y383000D02*
D03*
Y363000D02*
D03*
Y353000D02*
D03*
Y323000D02*
D03*
Y313000D02*
D03*
Y303000D02*
D03*
Y413000D02*
D03*
Y373000D02*
D03*
Y333000D02*
D03*
Y293000D02*
D03*
X394500Y343000D02*
D03*
Y363000D02*
D03*
X345500Y241500D02*
D03*
D16*
X479500Y441000D02*
D03*
X372000Y179000D02*
D03*
X400000Y125000D02*
D03*
X479500Y455500D02*
D03*
X400000Y138500D02*
D03*
X372500Y153500D02*
D03*
X321500Y402500D02*
D03*
Y392500D02*
D03*
Y382500D02*
D03*
X277500Y353000D02*
D03*
X287500D02*
D03*
X297500D02*
D03*
X412000Y334500D02*
D03*
Y344500D02*
D03*
Y354500D02*
D03*
D17*
X489500Y441000D02*
D03*
X382000Y179000D02*
D03*
X410000Y125000D02*
D03*
X489500Y455500D02*
D03*
X410000Y138500D02*
D03*
X382500Y153500D02*
D03*
X307500Y353000D02*
D03*
D18*
X537130Y371782D02*
D03*
X450516Y324538D02*
D03*
Y332412D02*
D03*
Y340286D02*
D03*
Y348160D02*
D03*
Y356034D02*
D03*
Y363908D02*
D03*
Y371782D02*
D03*
Y379656D02*
D03*
Y387530D02*
D03*
Y395404D02*
D03*
X537130Y332412D02*
D03*
Y340286D02*
D03*
Y348160D02*
D03*
Y356034D02*
D03*
Y363908D02*
D03*
Y324538D02*
D03*
Y379656D02*
D03*
Y387530D02*
D03*
Y395404D02*
D03*
D19*
X321500Y372500D02*
D03*
X412000Y364500D02*
D03*
D20*
X210500Y306658D02*
D03*
X420500Y298158D02*
D03*
X315000Y187657D02*
D03*
X371000Y211842D02*
D03*
X245000Y181815D02*
D03*
D21*
X275000Y181500D02*
D03*
Y161500D02*
D03*
Y171500D02*
D03*
X356500Y156500D02*
D03*
Y176500D02*
D03*
Y166500D02*
D03*
X237500Y370000D02*
D03*
X247500D02*
D03*
X257500D02*
D03*
X267500D02*
D03*
D22*
X325185Y152500D02*
D03*
X305500D02*
D03*
X431000Y416600D02*
D03*
Y457500D02*
D03*
Y427500D02*
D03*
Y437500D02*
D03*
Y467500D02*
D03*
Y447500D02*
D03*
D23*
X375421Y241500D02*
D03*
D24*
X352000Y351500D02*
D03*
M02*
